<?xml version="1.0" standalone="no"?> <!DOCTYPE svg PUBLIC "-//W3C//DTD SVG 1.0//EN" "http://www.w3.org/TR/2001/REC-SVG-20010904/DTD/svg10.dtd" >
<svg xmlns="http://www.w3.org/2000/svg" width="100%" height="100%">
<defs>
<font horiz-adv-x="571" id="GuardianEgyp-BoldIt-Web">
<font-face
    font-family=""
    units-per-em="1000"
    panose-1="2 0 0 0 0 0 0 0 0 0"
    ascent="790"
    descent="-210"
    alphabetic="0" />
<missing-glyph horiz-adv-x="500" />
<glyph unicode=" " glyph-name="space" horiz-adv-x="171" />
<glyph unicode="!" glyph-name="exclam" horiz-adv-x="275" d="M90 -12Q69 -12 53 -5T26 13T9 38T3 66Q3 109 32 137T102 165Q123 165 139 158T166 140T182 115T188 87Q188 42 160 15T90 -12ZM152 693H347L185 217H67L152 693Z" />
<glyph unicode="&quot;" glyph-name="quotedbl" horiz-adv-x="446" d="M320 693L235 463H121L156 693H320ZM517 693L432 463H318L353 693H517Z" />
<glyph unicode="#" glyph-name="numbersign" horiz-adv-x="537" d="M118 538H210L260 693H359L308 538H400L451 693H549L499 538H581L545 394H453L426 310H507L471 166H380L327 0H229L281 166H189L137 0H38L91 166H9L44 310H137L164 394H82L118 538ZM236 310H327L355
394H263L236 310Z" />
<glyph unicode="$" glyph-name="dollar" horiz-adv-x="572" d="M131 -4Q81 1 41 12T-23 35L12 199H128L133 118Q148 109 172 105L240 285L216 295Q149 321 118 361T87 470Q87 514 105 556T159 631T252 684T383 704H398L421 765H509L484 698Q527 693 559 685T611
667L587 517H475L469 581Q459 586 443 589L380 422L399 415Q474 388 509 351T545 244Q545 191 522 145T457 65T355 11T221 -9H217L177 -117H89L131 -4ZM362 192Q362 212 352 226T316 253L259 102Q306 108 334 131T362 192ZM259 513Q259 491 268 478T303 453L357
596Q308 593 284 570T259 513Z" />
<glyph unicode="%" glyph-name="percent" horiz-adv-x="917" d="M245 384Q258 384 268 391T286 411Q294 423 302 444T317 490T328 540T333 586Q333 626 299 626Q286 626 277 619T258 597Q250 584 242 562T226 514T215 466T210 426Q210 384 245 384ZM668 67Q681
67 691 74T709 94Q717 107 725 128T740 173T751 223T756 270Q756 309 722 309Q709 309 700 302T681 280Q673 267 665 245T649 198T638 149T634 109Q634 89 642 78T668 67ZM238 305Q203 305 173 314T120 342T85 388T72 453Q72 510 93 556T148 636T223 687T307 705Q342
705 372 696T425 669T459 624T472 559Q472 502 451 455T397 375T322 323T238 305ZM735 713H841L220 -40H114L735 713ZM661 -12Q626 -12 596 -3T543 25T509 72T496 136Q496 193 517 239T571 319T647 370T731 388Q766 388 796 380T848 353T882 308T895 243Q895 186
875 139T821 59T746 7T661 -12Z" />
<glyph unicode="&amp;" glyph-name="ampersand" horiz-adv-x="740" d="M243 -12Q186 -12 143 0T70 36T25 91T10 162Q10 207 24 243T64 306T125 355T201 391Q185 420 177 445T169 497Q169 543 187 581T239 647T317 690T417 705Q466 705 501 695T560 666T595 623T606
570Q607 500 559 454T424 376L528 230Q552 262 569 297L530 310L553 401H767L745 309L694 296Q653 217 585 149L609 116L679 97L654 0H464L437 39Q391 15 343 2T243 -12ZM305 101Q347 101 385 116L256 305L253 308Q224 282 214 252T203 191Q203 154 227 128T305
101ZM347 518Q347 497 355 478T377 441Q421 465 436 495T451 556Q451 577 440 590T411 603Q382 603 365 579T347 518Z" />
<glyph unicode="&apos;" glyph-name="quotesingle" horiz-adv-x="248" d="M320 693L235 463H121L156 693H320Z" />
<glyph unicode="(" glyph-name="parenleft" horiz-adv-x="359" d="M184 -148Q154 -118 127 -83T77 -4T42 90T29 201Q29 298 61 381T146 534T266 659T405 753L457 691Q394 637 345 579T262 456T211 316T193 158Q193 82 211 21T259 -96L184 -148V-148Z" />
<glyph unicode=")" glyph-name="parenright" horiz-adv-x="359" d="M203 752Q233 722 261 687T310 608T345 514T359 403Q359 306 327 223T242 70T121 -55T-17 -149L-69 -87Q-6 -33 43 25T126 148T177 288T195 446Q195 522 177 583T128 700L203 752V752Z" />
<glyph unicode="*" glyph-name="asterisk" horiz-adv-x="402" d="M231 476L120 397L87 506L210 527L100 563L184 665L253 572L246 693H375L310 568L421 647L454 538L331 517L441 481L357 379L288 472L294 352H166L231 476Z" />
<glyph unicode="+" glyph-name="plus" horiz-adv-x="540" d="M67 399H231V570H353V399H517V281H353V110H231V281H67V399Z" />
<glyph unicode="," glyph-name="comma" horiz-adv-x="256" d="M-43 -81Q-21 -25 -5 31T26 161H199Q185 91 154 29T80 -81H-43V-81Z" />
<glyph unicode="-" glyph-name="hyphen" horiz-adv-x="329" d="M60 352H323L289 216H26L60 352Z" />
<glyph unicode="." glyph-name="period" horiz-adv-x="258" d="M82 -13Q39 -13 15 12T-9 70Q-9 92 -1 111T21 144T53 166T94 174Q138 174 161 148T185 91Q185 44 156 16T82 -13Z" />
<glyph unicode="/" glyph-name="slash" horiz-adv-x="384" d="M353 733H488L40 -120H-94L353 733Z" />
<glyph unicode="0" glyph-name="zero" horiz-adv-x="664" d="M295 105Q317 105 342 118T393 175Q409 203 424 242T452 325T471 413T479 496Q479 539 465 563T416 587Q387 587 364 570T319 515Q302 486 287 447T261 364T242 278T235 195Q235 152 249 129T295 105ZM269
-13Q215 -13 172 2T97 49T48 124T31 228Q31 326 62 413T149 565T279 667T442 705Q497 705 542 689T618 641T666 565T683 464Q683 367 652 281T566 129T435 25T269 -13Z" />
<glyph unicode="1" glyph-name="one" horiz-adv-x="422" d="M-6 97L84 114L184 515L80 506L104 604L336 700H433L287 114L367 97L342 0H-31L-6 97Z" />
<glyph unicode="2" glyph-name="two" horiz-adv-x="538" d="M190 136V134H488L444 0H-41L-14 109L178 259Q228 298 263 330T321 392T353 448T363 504Q363 540 347 559T295 579Q266 579 248 567L228 489H120Q103 502 96 519T88 554Q88 582 104 609T153 657T235
691T351 704Q458 704 516 657T576 534Q576 486 559 443T506 360T418 280T294 198L190 136Z" />
<glyph unicode="3" glyph-name="three" horiz-adv-x="537" d="M196 -10Q150 -10 114 -5T51 9T5 28T-27 47L0 155Q26 144 63 134T149 124Q224 124 258 153T293 233Q293 299 199 299H134L162 412H221Q291 412 323 440T356 520Q356 550 338 569T283 588Q269 588 259
585T240 578L222 505H124Q107 518 101 534T94 567Q94 595 109 619T156 663T234 693T343 704Q449 704 503 663T558 549Q558 475 510 430T382 365V361Q435 351 470 318T505 228Q505 178 485 135T425 59T328 9T196 -10Z" />
<glyph unicode="4" glyph-name="four" horiz-adv-x="600" d="M196 97L274 112L296 201H6L29 296L449 694H615L519 307H592L566 201H492L470 112L537 97L512 0H171L196 97ZM323 307L369 493H365L177 310V307H323Z" />
<glyph unicode="5" glyph-name="five" horiz-adv-x="532" d="M174 -10Q132 -10 100 -6T43 6T0 23T-33 42L-6 149Q23 138 58 130T139 122Q218 122 256 155T295 245Q295 285 265 303T175 321Q146 321 119 318T66 309L174 693H577L530 550H256L222 429Q238 434 261
437T314 441Q405 441 456 396T507 269Q507 215 486 165T423 75T319 13T174 -10Z" />
<glyph unicode="6" glyph-name="six" horiz-adv-x="608" d="M274 -12Q213 -12 168 5T92 53T47 127T32 222Q32 281 46 340T86 453T146 551T222 625Q280 666 339 685T470 704Q541 704 581 690T644 657L613 547Q591 555 560 561T489 567Q414 567 358 528T266 396Q297
418 341 431T423 444Q509 444 548 402T588 290Q588 239 571 186T516 88T418 16T274 -12ZM284 104Q309 104 328 117T359 153T378 203T385 260Q385 292 371 308T325 324Q303 324 281 317T241 297Q233 271 228 240T222 180Q222 145 237 125T284 104Z" />
<glyph unicode="7" glyph-name="seven" horiz-adv-x="530" d="M452 545V550H226L185 479H76L133 693H625L596 581L258 0H32L452 545Z" />
<glyph unicode="8" glyph-name="eight" horiz-adv-x="610" d="M268 -13Q196 -13 146 1T63 39T17 94T2 159Q3 225 50 276T190 352Q143 375 126 410T109 483Q109 527 129 567T187 638T281 687T408 705Q471 705 515 693T587 659T627 609T640 550Q640 486 595 440T465
372Q524 346 552 311T581 222Q581 171 558 128T494 53T395 5T268 -13ZM272 100Q322 100 350 126T379 193Q379 225 354 246T267 290Q219 270 198 240T176 171Q176 139 198 120T272 100ZM376 429Q418 444 441 469T465 537Q465 564 446 578T395 593Q347 593 325 568T302
508Q302 482 317 464T376 429Z" />
<glyph unicode="9" glyph-name="nine" horiz-adv-x="608" d="M189 -12Q117 -12 76 3T11 36L40 146Q62 138 96 132T171 125Q253 125 308 162T393 296Q362 274 318 261T236 248Q152 248 111 290T70 402Q70 453 87 507T142 604T240 676T384 704Q445 704 490 688T566
641T611 568T626 473Q626 414 613 354T577 240T520 139T445 63Q415 40 386 26T325 3T261 -8T189 -12ZM334 368Q355 368 377 375T417 395Q425 421 431 452T437 512Q437 547 421 567T375 588Q349 588 330 575T299 539T280 489T273 432Q273 400 287 384T334 368Z"
/>
<glyph unicode=":" glyph-name="colon" horiz-adv-x="265" d="M86 -13Q42 -13 19 12T-5 70Q-5 115 24 144T97 174Q141 174 164 148T188 91Q188 44 159 16T86 -13ZM158 279Q137 279 120 286T91 305T73 332T67 363Q67 385 75 404T97 437T129 459T170 467Q214 467
237 441T261 384Q261 337 232 308T158 279Z" />
<glyph unicode=";" glyph-name="semicolon" horiz-adv-x="265" d="M-39 -81Q-17 -25 0 31T30 161H204Q190 91 159 29T85 -81H-39ZM158 279Q137 279 120 286T91 305T73 332T67 363Q67 385 75 404T97 437T129 459T170 467Q214 467 237 441T261 384Q261 337 232 308T158
279Z" />
<glyph unicode="&lt;" glyph-name="less" horiz-adv-x="500" d="M59 270V383L463 557V424L207 327L463 229V97L59 270Z" />
<glyph unicode="=" glyph-name="equal" horiz-adv-x="538" d="M67 261H513V143H67V261ZM67 463H513V345H67V463Z" />
<glyph unicode="&gt;" glyph-name="greater" horiz-adv-x="500" d="M70 229L327 326L70 424V557L475 383V270L70 97V229Z" />
<glyph unicode="?" glyph-name="question" horiz-adv-x="468" d="M137 217Q130 232 130 256Q130 308 158 343T234 411Q257 427 275 440T305 469T323 500T330 539Q330 600 254 600Q248 600 243 599T232 596L218 521H127Q116 532 108 546T100 581Q100 634 152 669T302
704Q352 704 392 694T461 663T504 613T519 544Q519 509 507 480T474 425T424 379T359 338Q327 320 306 307T270 282T248 255T239 223Q239 221 239 220T240 217H137ZM158 -12Q137 -12 121 -5T94 13T78 38T72 66Q72 109 100 137T171 165Q192 165 208 158T235 140T251
115T257 87Q257 42 229 15T158 -12Z" />
<glyph unicode="@" glyph-name="at" horiz-adv-x="895" d="M417 -155Q325 -155 254 -130T135 -60T62 48T37 187Q37 289 74 379T176 536T329 641T521 680Q606 680 671 656T781 589T849 487T872 358Q872 274 850 213T791 111T707 51T609 31Q552 31 523 52T483 108H477Q445
75 410 57T334 39Q281 39 251 76T220 182Q220 251 242 305T299 398T380 456T473 476Q516 476 542 466T589 442L615 467H705L623 167Q619 154 619 142Q618 113 650 113Q671 113 695 126T740 167T773 242T787 354Q787 410 772 456T723 536T639 587T516 606Q430 606
358 575T235 487T154 354T125 187Q125 124 142 75T196 -9T289 -62T426 -81Q460 -81 493 -78T556 -70T611 -59T654 -47L643 -114Q598 -132 542 -143T417 -155ZM412 142Q431 142 448 153T476 179L523 360Q518 373 509 383T481 394Q463 394 444 378T410 333T386 268T376
190Q376 142 412 142Z" />
<glyph unicode="A" glyph-name="A" horiz-adv-x="723" d="M-29 97L30 114L392 693H581L627 114L679 97L654 0H323L348 97L417 114L412 205H226L174 114L235 97L211 0H-54L-29 97ZM408 301L399 495H394L282 301H408Z" />
<glyph unicode="B" glyph-name="B" horiz-adv-x="654" d="M-20 97L53 114L169 579L105 596L129 693H438Q550 693 607 653T664 539Q664 509 656 480T629 427T579 385T500 356V351Q569 338 598 307T627 221Q627 179 611 140T558 69T465 19T328 0H-44L-20 97ZM307
111Q422 111 422 237Q422 304 350 304H300L252 111H307ZM364 402Q411 402 439 432T468 522Q468 555 453 568T405 582H369L324 402H364Z" />
<glyph unicode="C" glyph-name="C" horiz-adv-x="641" d="M323 -13Q185 -13 109 47T32 232Q32 296 44 352T79 457T133 546T202 616Q258 662 325 683T464 704Q546 704 600 692T684 664L649 466H530L520 562Q507 569 492 574T448 579Q410 579 380 564T327 519Q306
493 290 456T261 378T243 299T237 233Q236 167 263 140T345 112Q368 112 388 117T424 131L479 231H600L544 27Q499 10 444 -1T323 -13Z" />
<glyph unicode="D" glyph-name="D" horiz-adv-x="722" d="M-20 97L53 114L169 579L105 596L130 693H451Q518 693 571 679T661 634T719 558T739 450Q739 361 711 280T629 136T498 37T321 0H-44L-20 97ZM320 117Q360 117 391 130T450 178Q467 198 482 232T508 305T526
385T533 460Q533 525 503 550T417 576H372L257 117H320Z" />
<glyph unicode="E" glyph-name="E" horiz-adv-x="624" d="M-20 97L53 114L169 579L105 596L129 693H677L648 483H538L525 582H369L325 406H379L411 471H499L445 234H361L356 301H299L252 111H423L493 233H606L543 0H-44L-20 97Z" />
<glyph unicode="F" glyph-name="F" horiz-adv-x="622" d="M-20 97L53 114L169 579L105 596L129 693H694L664 467H552L541 576H372L326 395H389L420 461H510L456 224H369L365 289H300L256 113L329 97L305 0H-44L-20 97Z" />
<glyph unicode="G" glyph-name="G" horiz-adv-x="701" d="M334 -12Q192 -12 113 51T34 236Q34 351 78 449T209 617Q263 662 334 683T490 705Q561 705 613 694T694 669L666 469H545L534 563Q522 571 507 575T463 579Q424 579 392 563T334 517Q315 494 298 460T267
387T245 307T237 230Q237 164 266 137T349 110Q366 110 380 113T406 121L434 231L377 247L401 344H704L679 247L624 231L573 26Q530 12 468 0T334 -12Z" />
<glyph unicode="H" glyph-name="H" horiz-adv-x="760" d="M-20 97L53 114L169 579L104 596L129 693H455L431 596L372 580L330 410H513L555 580L504 596L529 693H855L830 596L758 579L642 114L706 97L682 0H356L380 97L439 113L486 300H302L255 113L306 97L282
0H-44L-20 97Z" />
<glyph unicode="I" glyph-name="I" horiz-adv-x="376" d="M-20 97L55 114L171 579L104 596L129 693H472L447 596L373 579L257 114L323 97L299 0H-44L-20 97Z" />
<glyph unicode="J" glyph-name="J" horiz-adv-x="507" d="M105 91H109Q126 91 141 95T170 112T195 151T218 218L307 579L243 596L267 693H605L580 596L511 579L418 208Q402 143 373 101T308 34T230 -1T146 -11Q97 -11 64 -3T9 19T-21 52T-31 95Q-31 124 -15 148T20
183H122L105 91Z" />
<glyph unicode="K" glyph-name="K" horiz-adv-x="727" d="M344 269L284 231L255 113L312 97L287 0H-44L-20 97L53 114L169 579L104 596L129 693H456L432 596L372 580L320 375L547 581L501 596L526 693H807L782 596L723 577L506 394L621 113L677 97L652 0H448L344 269Z" />
<glyph unicode="L" glyph-name="L" horiz-adv-x="594" d="M-20 97L53 114L169 579L104 596L129 693H476L452 596L372 580L256 114H392L472 258H588L516 0H-44L-20 97Z" />
<glyph unicode="M" glyph-name="M" horiz-adv-x="932" d="M-20 97L53 114L169 579L104 596L129 693H458L464 286H468L676 693H1027L1002 596L927 579L811 114L878 97L854 0H533L558 97L614 113L718 528H714L437 7H302L289 523H286L183 113L233 97L209 0H-44L-20 97Z" />
<glyph unicode="N" glyph-name="N" horiz-adv-x="726" d="M-20 97L53 114L169 579L104 596L129 693H412L524 283H529L603 578L538 596L562 693H824L800 596L735 579L591 0H411L281 479H276L185 113L252 97L228 0H-44L-20 97Z" />
<glyph unicode="O" glyph-name="O" horiz-adv-x="705" d="M322 110Q356 110 382 127T430 176Q449 205 465 242T492 319T510 400T517 481Q517 534 495 558T434 583Q401 583 374 565T326 515Q307 486 291 450T263 374T245 292T238 210Q238 157 259 134T322 110ZM298
-13Q241 -13 192 3T108 52T53 131T33 238Q33 334 65 419T153 567T286 668T454 705Q514 705 564 688T649 639T703 560T723 453Q723 357 691 273T603 125T468 24T298 -13Z" />
<glyph unicode="P" glyph-name="P" horiz-adv-x="637" d="M-20 97L53 114L169 579L104 596L129 693H445Q566 693 625 648T684 516Q684 454 663 407T604 328T515 280T402 264Q367 264 342 267T296 276L256 113L332 97L308 0H-44L-20 97ZM321 374Q346 369 376 369Q427
369 456 407T485 506Q485 543 465 559T408 575H371L321 374Z" />
<glyph unicode="Q" glyph-name="Q" horiz-adv-x="705" d="M239 -12Q200 0 163 18T97 65T51 136T33 238Q33 334 65 419T153 567T286 668T454 705Q514 705 564 688T649 639T703 560T723 453Q723 369 703 302T645 183T555 99T440 50V47L651 19L600 -129L239 -12ZM322
107Q356 107 382 124T430 173Q449 202 465 239T492 317T510 400T517 481Q517 534 495 558T434 583Q401 583 374 565T326 515Q307 486 291 450T263 373T245 291T238 208Q238 156 259 132T322 107Z" />
<glyph unicode="R" glyph-name="R" horiz-adv-x="698" d="M-20 97L54 114L170 578L106 596L130 693H455Q520 693 566 680T641 645T684 591T698 524Q698 445 655 396T534 324V320L606 111L654 97L629 0H431L349 276H298L257 112L311 97L287 0H-44L-20 97ZM387 381Q414
381 434 391T466 419T485 460T492 509Q492 543 474 560T412 577H373L324 381H387Z" />
<glyph unicode="S" glyph-name="S" horiz-adv-x="545" d="M209 -10Q131 -10 72 4T-21 36L14 209H137L143 129Q157 121 172 116T216 110Q266 110 291 130T317 189Q317 216 297 235T235 277L203 295Q177 309 156 325T119 363T94 410T85 470Q85 515 101 557T151 631T241
684T375 704Q416 704 447 701T503 693T545 682T579 668L556 507H436L429 570Q418 577 404 582T362 587Q317 587 296 567T274 518Q274 493 292 476T350 436L382 418Q410 402 435 386T478 349T508 302T519 242Q519 188 499 142T438 62T341 9T209 -10Z" />
<glyph unicode="T" glyph-name="T" horiz-adv-x="653" d="M118 97L196 114L312 579H242L184 458H65L131 693H741L695 458H581L579 579H515L399 114L469 97L444 0H93L118 97Z" />
<glyph unicode="U" glyph-name="U" horiz-adv-x="711" d="M338 -12Q205 -12 137 37T68 175Q68 205 76 242L161 579L100 596L125 693H451L427 596L364 580L279 239Q273 215 273 194Q273 148 300 127T376 105Q430 105 458 134T502 227L590 580L535 596L560 693H810L786
596L721 579L630 212Q618 164 599 123T546 52T463 5T338 -12Z" />
<glyph unicode="V" glyph-name="V" horiz-adv-x="702" d="M149 579L100 596L124 693H438L413 596L349 579L367 198H372L576 579L519 596L544 693H802L778 596L720 579L382 0H195L149 579Z" />
<glyph unicode="W" glyph-name="W" horiz-adv-x="981" d="M145 579L100 596L124 693H423L398 596L340 579L330 231H335L555 693H702L700 245H705L858 579L804 596L828 693H1080L1056 596L999 579L723 0H532L539 412H535L338 0H142L145 579Z" />
<glyph unicode="X" glyph-name="X" horiz-adv-x="693" d="M-20 97L36 111L253 354L162 579L108 596L133 693H453L428 596L379 582L427 436L541 582L497 596L518 693H781L757 596L701 579L493 345L587 114L640 97L616 0H299L323 97L377 110L323 270L198 110L241
97L216 0H-44L-20 97Z" />
<glyph unicode="Y" glyph-name="Y" horiz-adv-x="664" d="M123 97L200 114L242 284L150 579L100 596L124 693H428L404 596L352 581L402 393H406L544 581L499 596L524 693H764L740 596L683 579L442 273L402 114L471 97L446 0H99L123 97Z" />
<glyph unicode="Z" glyph-name="Z" horiz-adv-x="598" d="M-11 119L424 574V578H268L205 467H87L149 693H687L657 574L221 119V115H390L465 245H580L512 0H-41L-11 119Z" />
<glyph unicode="[" glyph-name="bracketleft" horiz-adv-x="352" d="M171 733H449L425 636L316 619L160 -6L261 -23L236 -120H-42L171 733Z" />
<glyph unicode="\" glyph-name="backslash" horiz-adv-x="384" d="M128 733H247L308 -120H188L128 733Z" />
<glyph unicode="]" glyph-name="bracketright" horiz-adv-x="352" d="M-42 -23L66 -6L222 619L122 636L146 733H425L212 -120H-67L-42 -23Z" />
<glyph unicode="^" glyph-name="asciicircum" horiz-adv-x="434" d="M276 693H382L462 439H361L295 552L172 439H69L276 693Z" />
<glyph unicode="_" glyph-name="underscore" horiz-adv-x="346" d="M-76 -47H278L250 -155H-104L-76 -47Z" />
<glyph unicode="`" glyph-name="grave" horiz-adv-x="498" d="M178 650L244 771L442 652L399 576L178 650Z" />
<glyph unicode="a" glyph-name="a" horiz-adv-x="598" d="M131 -13Q104 -13 81 -5T41 22T14 68T4 138Q4 216 33 287T110 413T221 500T350 532Q380 532 403 524T439 503H444L474 534H614L481 98H559L532 19Q503 6 458 -3T370 -12Q334 -12 321 4T309 49Q309 52 310
58T313 73Q315 82 317 92H312Q274 41 229 14T131 -13ZM228 109Q251 109 277 129T325 175L394 407Q379 428 348 428Q324 428 297 407T248 350T210 265T195 159Q195 109 228 109Z" />
<glyph unicode="b" glyph-name="b" horiz-adv-x="594" d="M233 -13Q141 -13 84 1T-9 38L158 610L94 617L121 714L361 752L376 743L288 445H294Q332 489 375 517T473 546Q530 546 562 507T594 396Q594 310 570 235T499 105T386 19T233 -13ZM250 95Q287 95 315 118T363
177T392 255T402 335Q402 364 393 381T363 399Q339 399 312 380T257 329L191 109Q202 103 215 99T250 95Z" />
<glyph unicode="c" glyph-name="c" horiz-adv-x="476" d="M353 360L367 440H364Q331 440 302 420T250 367T214 289T200 198Q200 153 219 132T286 111Q310 111 348 119T426 145L403 49Q374 26 327 7T219 -13Q119 -13 66 37T12 176Q12 258 42 326T122 443T239 519T377
546Q451 546 482 521T513 460Q513 445 508 430T496 402T479 377T461 360H353Z" />
<glyph unicode="d" glyph-name="d" horiz-adv-x="616" d="M142 -13Q114 -13 90 -5T47 22T17 70T6 141Q6 224 35 298T115 427T231 514T369 546Q392 546 411 542T446 531L469 612L406 621L432 714L661 751L677 743L501 98H579L552 19Q540 13 521 8T480 -2T434 -9T389
-12Q346 -12 335 12T331 71L336 92H331Q293 43 244 15T142 -13ZM239 113Q251 113 264 118T292 133T319 154T344 181L410 418Q402 427 391 432T366 438Q336 438 306 417T252 359T213 274T197 171Q197 140 209 127T239 113Z" />
<glyph unicode="e" glyph-name="e" horiz-adv-x="515" d="M218 -13Q116 -13 64 38T12 178Q12 260 42 327T120 443T232 519T361 546Q399 546 431 538T488 514T525 474T539 417Q539 376 521 343T461 283T354 238T191 210V203Q191 160 211 136T286 111Q324 111 367
121T451 149L428 52Q393 25 341 6T218 -13ZM334 444Q316 444 297 432T261 400T229 352T205 294Q251 300 282 311T331 339T357 373T365 413Q365 444 334 444Z" />
<glyph unicode="f" glyph-name="f" horiz-adv-x="370" d="M72 511L140 533Q157 591 185 632T249 700T329 738T421 750Q478 750 516 731T554 668Q554 643 542 623T515 590H421L431 651Q420 657 407 657Q378 657 357 629T318 534H422L391 425H291L202 69Q168 -67
104 -133T-70 -199Q-93 -199 -113 -195T-149 -181T-173 -156T-182 -117Q-182 -96 -168 -74T-138 -43H-58L-69 -107Q-46 -106 -26 -88T5 -25L114 425H49L72 511Z" />
<glyph unicode="g" glyph-name="g" horiz-adv-x="508" d="M175 -202Q107 -202 57 -193T-25 -167T-73 -128T-89 -79Q-89 -36 -49 -4T55 49Q51 61 51 75Q51 97 58 116T76 152T101 183T129 211Q92 228 70 259T48 338Q48 395 71 434T131 498T209 534T290 545Q348 545
387 529L577 549L547 443L468 455Q476 442 481 427T487 392Q487 337 464 298T405 235T327 199T247 188Q222 188 198 191Q193 181 193 169Q193 163 196 158T210 148T238 138T285 126Q334 115 367 102T420 72T448 34T457 -13Q457 -61 437 -96T380 -155T291 -190T175
-202ZM215 -11Q182 -3 159 3T117 15Q97 3 86 -12T75 -44Q75 -56 80 -66T98 -84T134 -96T192 -101Q239 -101 265 -87T292 -53Q292 -37 274 -29T215 -11ZM250 276Q284 276 306 311T329 402Q329 425 320 440T284 456Q250 456 228 422T206 331Q206 308 215 292T250
276Z" />
<glyph unicode="h" glyph-name="h" horiz-adv-x="598" d="M324 -13Q289 -13 266 3T243 45Q243 65 254 81T273 106L342 94Q358 136 371 175T394 249T409 312T414 359Q414 383 405 393T375 403Q351 403 324 382T267 330L168 0H-10L171 610L106 617L134 714L375 752L390
743L298 439H304Q348 487 394 516T494 546Q546 546 573 511T600 412Q600 373 592 329T568 239T532 150T485 69Q453 23 413 5T324 -13Z" />
<glyph unicode="i" glyph-name="i" horiz-adv-x="326" d="M91 -12Q71 -12 54 -8T26 7T12 35T17 78L122 425H49L74 516L321 545L335 537L202 98H287L260 19Q231 6 186 -3T91 -12ZM255 584Q215 584 190 605T164 663Q164 685 173 702T196 732T229 750T268 757Q309
757 334 736T360 678Q360 655 351 638T328 608T294 590T255 584Z" />
<glyph unicode="j" glyph-name="j" horiz-adv-x="311" d="M-95 -109H-91Q-78 -109 -66 -106T-41 -90T-19 -56T3 5L122 425H49L74 516L321 545L335 537L194 48Q175 -19 146 -66T80 -142T1 -185T-86 -199Q-146 -199 -177 -176T-209 -115Q-209 -91 -197 -73T-170
-43H-83L-95 -109ZM255 584Q215 584 190 605T164 663Q164 685 173 702T196 732T229 750T268 757Q309 757 334 736T360 678Q360 655 351 638T328 608T294 590T255 584Z" />
<glyph unicode="k" glyph-name="k" horiz-adv-x="582" d="M533 425Q508 409 478 379T416 310L480 98H554L527 19Q507 8 478 -2T406 -13Q366 -13 343 9T306 82L266 239L285 302Q334 374 369 421T432 495T488 534T549 546Q579 546 597 535T627 511L603 425H533ZM171
610L106 617L134 714L374 752L389 743L168 0H-10L171 610Z" />
<glyph unicode="l" glyph-name="l" horiz-adv-x="327" d="M91 -12Q71 -12 54 -8T27 7T13 35T17 78L171 610L103 617L131 714L375 752L390 743L202 98H288L261 19Q232 6 186 -3T91 -12Z" />
<glyph unicode="m" glyph-name="m" horiz-adv-x="913" d="M683 -12Q662 -12 645 -7T618 8T604 36T609 78L692 340Q695 352 697 361T700 377Q700 399 678 399Q652 399 623 376T567 321L469 0H292L393 340Q401 364 401 377Q401 399 380 399Q352 399 323 373T265
313L168 0H-10L117 425H49L74 516L296 545L310 537L278 419H283Q331 479 386 512T494 546Q536 546 562 521T590 441Q590 435 589 431H595Q640 482 689 514T793 546Q811 546 829 541T862 523T885 492T894 444Q894 414 882 375L794 98H874L847 19Q832 13 813 7T772
-3T727 -9T683 -12Z" />
<glyph unicode="n" glyph-name="n" horiz-adv-x="625" d="M395 -12Q350 -12 328 9T321 78L404 340Q412 364 412 377Q412 399 391 399Q376 399 360 392T327 372T294 342T263 307L168 0H-10L117 425H49L74 516L296 545L310 537L276 413H281Q330 478 388 512T502
546Q521 546 540 541T574 523T598 491T607 443Q607 414 595 374L507 98H586L559 19Q530 6 484 -3T395 -12Z" />
<glyph unicode="o" glyph-name="o" horiz-adv-x="585" d="M255 94Q291 94 316 124T358 196T382 283T390 360Q390 394 378 416T337 439Q313 439 294 425T259 389T233 337T215 279T204 221T200 173Q200 138 213 116T255 94ZM236 -13Q131 -13 72 42T13 195Q13 227
21 266T48 344T93 419T159 484T246 529T355 546Q410 546 451 531T521 488T564 422T579 338Q579 306 571 267T544 189T499 114T433 49T346 4T236 -13Z" />
<glyph unicode="p" glyph-name="p" horiz-adv-x="607" d="M-106 -111L-36 -97L117 425H49L74 516L297 545L311 537L281 424H286Q330 479 380 512T486 546Q543 546 575 507T607 396Q607 310 583 236T515 106T409 19T270 -13Q259 -13 245 -12T218 -9T192 -3T172
6L143 -97L218 -111L191 -200H-133L-106 -111ZM263 95Q300 95 328 118T376 177T405 255T415 335Q415 364 406 381T376 399Q350 399 325 380T270 329L204 111Q216 103 229 99T263 95Z" />
<glyph unicode="q" glyph-name="q" horiz-adv-x="601" d="M180 -111L263 -97L316 72H311Q279 33 237 10T143 -13Q114 -13 89 -5T46 22T17 70T6 141Q6 224 33 298T112 427T237 514T401 546Q478 546 532 534T618 503L440 -97L504 -111L477 -200H153L180 -111ZM240
113Q267 113 294 132T343 178L415 424Q407 429 397 433T369 438Q340 438 310 417T254 359T213 274T197 171Q197 140 208 127T240 113Z" />
<glyph unicode="r" glyph-name="r" horiz-adv-x="500" d="M117 425H49L74 516L296 545L310 537L274 405H279Q317 467 365 506T463 546Q504 546 522 526T541 474Q541 439 524 406T485 350H383L392 408Q360 400 324 365T256 285L168 0H-10L117 425Z" />
<glyph unicode="s" glyph-name="s" horiz-adv-x="449" d="M168 -13Q131 -13 97 -7T37 13T-4 45T-20 90Q-20 120 -5 139T23 167H133L118 101Q126 96 139 93T172 89Q212 89 229 102T247 139Q247 161 231 176T174 211Q125 236 94 269T62 360Q62 399 79 432T128 491T203
531T299 546Q336 546 367 540T422 522T458 492T471 451Q471 428 459 409T433 375H327L339 435Q330 440 318 443T290 447Q256 447 241 433T225 396Q225 385 229 377T243 361T271 343T315 319Q361 295 388 266T416 183Q416 136 397 100T345 38T266 0T168 -13Z" />
<glyph unicode="t" glyph-name="t" horiz-adv-x="364" d="M72 511L147 534L183 655H355L321 534H421L389 425H291L211 142Q205 120 210 110T240 99Q260 99 277 102T314 110L285 17Q261 6 225 -3T132 -12Q81 -12 50 8T19 75Q19 98 28 128L115 425H49L72 511Z" />
<glyph unicode="u" glyph-name="u" horiz-adv-x="621" d="M127 -13Q106 -13 87 -8T53 9T30 40T21 86Q21 119 34 159L114 425H49L74 516L312 545L326 537L222 186Q214 162 214 148Q214 125 236 125Q263 125 293 149T353 202L455 534H634L504 98H582L555 19Q527
6 482 -3T393 -12Q358 -12 344 3T332 48Q332 56 336 73T343 103H338Q290 49 236 18T127 -13Z" />
<glyph unicode="v" glyph-name="v" horiz-adv-x="542" d="M83 0Q87 62 91 121T97 236T101 339T103 425H34L58 516Q93 529 128 537T198 545Q238 545 258 528T279 465Q279 390 274 315T260 163H264Q285 188 309 219T356 284T399 354T431 425H357L381 509Q408 526
438 536T504 546Q533 546 553 531T573 483Q573 449 558 408T517 322T457 232T386 144T311 64T240 0H83V0Z" />
<glyph unicode="w" glyph-name="w" horiz-adv-x="809" d="M84 0Q88 62 92 121T98 236T101 339T103 425H34L58 516Q93 529 128 537T198 545Q237 545 257 528T278 465Q278 389 274 317T259 170H263Q294 207 328 254T393 352L395 425H329L354 516Q389 529 415 537T477
545Q517 545 537 528T558 465Q558 387 554 316T538 170H542Q562 192 585 221T629 285T669 354T699 425H628L652 509Q679 526 707 536T771 546Q800 546 819 531T839 481Q839 446 825 405T787 321T729 233T660 146T584 67T508 0H373L387 199Q350 145 309 94T227 0H84V0Z"
/>
<glyph unicode="x" glyph-name="x" horiz-adv-x="555" d="M48 -13Q24 -13 8 -7T-17 10T-31 33T-35 58Q-35 75 -30 87T-19 107L63 98Q95 127 127 172T185 264L132 425H62L86 516L275 545L289 537L334 363Q356 405 377 438T420 496T466 533T519 546Q543 546 559
540T584 525T598 504T602 480Q602 463 595 445T581 419L501 428Q471 399 440 355T383 262L437 98H520L493 19Q465 4 435 -4T362 -12Q337 -12 319 -7T287 12T264 47T248 103L234 165Q212 124 191 91T148 35T102 0T48 -13Z" />
<glyph unicode="y" glyph-name="y" horiz-adv-x="542" d="M7 -96Q36 -91 63 -76T114 -44Q116 29 116 99T113 231T107 343T99 425H32L57 516Q89 528 123 536T191 545Q231 545 250 531T274 479Q279 444 281 399T283 304T280 204T275 108H279Q307 147 332 190T378
276T412 357T432 425H358L382 509Q408 526 437 536T502 546Q531 546 549 530T568 473Q568 421 544 354T479 216T386 79T277 -40Q192 -118 120 -158T-22 -199Q-81 -199 -104 -176T-129 -114Q-128 -87 -114 -65T-84 -31H21L7 -96Z" />
<glyph unicode="z" glyph-name="z" horiz-adv-x="522" d="M72 -8Q22 -8 -2 11T-26 56Q-26 83 -7 105T38 150L292 361Q252 379 219 401T170 436L146 357H63Q58 365 55 375T52 397Q52 431 64 458T97 505T146 535T206 546Q260 546 314 527T420 475L457 542Q494 540
522 528T551 488Q551 462 536 442T487 394L216 173Q266 165 307 153T384 127L382 192H492Q490 151 479 115T447 50T398 5T332 -12Q304 -12 274 -4T214 18T159 45T113 72H108L72 -8V-8Z" />
<glyph unicode="{" glyph-name="braceleft" horiz-adv-x="398" d="M282 -120Q217 -117 173 -107T102 -80T62 -42T50 7Q50 34 61 62T85 117T110 166T121 206Q121 226 103 239T35 261L65 376Q96 379 117 384T151 396T171 412T182 434Q186 450 186 473T186 523T188
577T202 627Q214 653 235 672T292 704T377 724T495 733L471 636Q415 629 393 612T363 569Q360 557 358 538T353 498T348 458T343 426Q332 380 295 356T184 316V311Q237 294 261 273T285 215Q285 197 277 172T258 121T239 70T230 30Q230 8 246 -4T307 -23L282 -120V-120Z"
/>
<glyph unicode="|" glyph-name="bar" horiz-adv-x="260" d="M88 733H206V-120H88V733Z" />
<glyph unicode="}" glyph-name="braceright" horiz-adv-x="398" d="M146 733Q211 730 255 720T327 693T366 655T378 606Q378 579 367 551T343 496T318 446T307 407Q307 387 325 374T393 352L364 237Q332 234 311 229T277 217T258 201T247 179Q242 163 242 140T243
90T241 36T227 -14Q215 -40 193 -59T136 -91T51 -111T-67 -120L-42 -23Q14 -16 36 1T66 44Q69 56 71 75T76 115T80 155T86 187Q92 210 103 227T134 256T180 279T245 297V302Q192 319 168 340T143 398Q143 416 151 441T170 492T190 543T199 583Q199 605 182 617T122
636L146 733V733Z" />
<glyph unicode="~" glyph-name="asciitilde" horiz-adv-x="480" d="M24 271Q59 329 100 363T193 398Q215 398 235 392T272 377T305 363T335 356Q356 356 375 368T411 403L487 342Q452 284 410 250T318 215Q295 215 276 221T239 236T205 250T175 257Q155 257 136
244T100 209L24 271Z" />
<glyph unicode="&#xa1;" glyph-name="exclamdown" horiz-adv-x="275" d="M145 -120H-51L111 356H230L145 -120ZM206 585Q227 585 243 578T270 560T287 535T293 507Q293 464 265 436T194 408Q173 408 157 415T130 433T114 458T108 486Q108 531 136 558T206 585Z" />
<glyph unicode="&#xa2;" glyph-name="cent" horiz-adv-x="531" d="M172 -8Q97 6 55 53T12 175Q12 271 57 345T175 470Q265 531 377 543L403 613H492L466 543Q523 536 546 514T570 460Q570 445 565 430T553 402T536 377T518 360H435L448 440Q441 442 429 444L302
101Q341 103 386 112T469 137L443 42Q414 22 369 7T260 -12L220 -120H131L172 -8ZM192 192Q192 169 198 151T220 120L335 431Q303 417 277 391T231 333T202 265T192 192Z" />
<glyph unicode="&#xa3;" glyph-name="sterling" horiz-adv-x="551" d="M71 388H123L137 464Q148 526 174 571T238 646T326 690T435 704Q531 704 575 675T619 599Q619 572 603 550T572 514H464L476 587Q471 590 462 590Q413 590 380 564T329 467L309 388H476L450
281H282L280 272Q272 242 262 222T237 186T206 159T169 138L168 135H503L455 0H-36L-10 103Q9 111 26 122T57 148T81 185T96 236L104 281H45L71 388Z" />
<glyph unicode="&#xa5;" glyph-name="yen" horiz-adv-x="644" d="M111 388H221L146 579L99 596L123 693H430L406 596L356 583L407 421H411L531 583L487 596L512 693H745L721 596L665 579L502 388H619L598 304H442L429 250H584L563 166H408L395 114L464 97L439
0H96L121 97L198 114L211 166H55L76 250H231L244 304H90L111 388Z" />
<glyph unicode="&#xa6;" glyph-name="brokenbar" horiz-adv-x="260" d="M88 279H206V-120H88V279ZM88 733H206V371H88V733Z" />
<glyph unicode="&#xa7;" glyph-name="section" horiz-adv-x="553" d="M186 -132Q117 -132 70 -120T-6 -94L21 43H130L136 -13Q145 -18 158 -22T199 -27Q236 -27 254 -11T272 31Q272 49 258 61T213 88L152 114Q90 141 59 176T27 259Q27 323 66 358T180 407Q157
427 145 453T132 514Q132 558 150 593T203 653T285 691T394 705Q462 705 507 693T581 665L548 536H442L438 583Q430 590 418 595T379 601Q350 601 328 588T306 545Q306 527 317 515T362 488L423 461Q485 435 516 402T548 320Q548 253 508 217T395 167Q446 127 446
67Q446 24 429 -12T378 -75T296 -117T186 -132ZM265 355Q235 351 218 338T201 301Q201 284 215 272T257 245L308 220Q340 224 357 238T374 276Q374 290 364 301T328 325L265 355Z" />
<glyph unicode="&#xa8;" glyph-name="dieresis" horiz-adv-x="498" d="M251 587Q215 587 192 607T169 660Q169 702 197 724T263 746Q300 746 322 726T345 673Q345 631 317 609T251 587ZM459 587Q423 587 400 607T377 660Q377 702 405 724T471 746Q508 746 530
726T553 673Q553 631 525 609T459 587Z" />
<glyph unicode="&#xa9;" glyph-name="copyright" horiz-adv-x="770" d="M416 158Q375 158 341 169T281 202T242 260T227 345Q227 397 243 433T286 491T350 524T426 535Q462 535 495 531T545 519L549 404H473L456 452Q448 455 442 457T422 459Q384 459 373 432T361
355Q361 319 364 296T374 259T394 240T426 235Q450 235 461 243L478 293H553L548 179Q528 171 495 165T416 158ZM409 55Q470 55 521 78T608 140T665 231T685 344Q685 403 665 455T609 547T521 609T409 632Q347 632 297 609T210 547T154 456T134 344Q134 284 154
232T210 140T296 78T409 55ZM409 -14Q334 -14 269 14T157 91T82 205T55 344Q55 418 82 483T156 596T269 672T409 700Q484 700 549 672T662 596T737 483T765 344Q765 270 738 205T662 91T549 14T409 -14Z" />
<glyph unicode="&#xaa;" glyph-name="ordfeminine" horiz-adv-x="539" d="M165 221Q141 221 120 228T84 252T60 293T51 353Q51 420 77 481T147 590T244 665T356 693Q382 693 401 686T432 669H436L462 694H585L481 325H549L523 248Q498 238 458 230T381 221Q340
221 330 243T325 298L328 308H324Q287 265 249 243T165 221ZM258 332Q277 332 298 349T339 393L392 575Q378 594 352 594Q331 594 309 575T269 525T239 454T227 371Q227 350 235 341T258 332Z" />
<glyph unicode="&#xab;" glyph-name="guillemotleft" horiz-adv-x="483" d="M19 233L30 280L176 454H301L169 245L205 51H89L19 233ZM226 233L237 280L383 454H508L376 245L411 51H296L226 233Z" />
<glyph unicode="&#xae;" glyph-name="registered" horiz-adv-x="475" d="M195 428L212 434V547L195 552V589H309Q351 589 371 572T392 528Q392 508 384 499T362 485V483L393 432L406 428V392H338L298 465H285V433L297 428V392H195V428ZM300 502Q321 502 321 523Q321
546 300 546H285V502H300ZM297 321Q334 321 364 334T417 369T451 422T463 488Q463 522 451 552T417 605T365 641T297 654Q260 654 230 641T179 606T145 553T133 488Q133 453 145 423T178 370T230 334T297 321ZM297 273Q251 273 211 290T142 336T96 404T79 488Q79
532 96 571T142 639T211 684T297 701Q343 701 383 685T452 639T499 571T516 488Q516 443 499 404T453 336T383 290T297 273Z" />
<glyph unicode="&#xaf;" glyph-name="macron" horiz-adv-x="498" d="M225 706H504L477 596H198L225 706Z" />
<glyph unicode="&#xb0;" glyph-name="degree" horiz-adv-x="397" d="M268 457Q307 457 330 484T353 556Q353 587 336 611T280 635Q241 635 218 608T195 536Q195 521 199 507T212 482T234 464T268 457ZM265 384Q229 384 200 396T151 429T119 477T108 534Q108 571
122 603T160 658T215 694T283 708Q319 708 348 696T397 662T429 614T440 558Q440 521 426 490T388 435T333 398T265 384Z" />
<glyph unicode="&#xb4;" glyph-name="acute" horiz-adv-x="498" d="M188 652L416 772L453 645L210 576L188 652Z" />
<glyph unicode="&#xb6;" glyph-name="paragraph" horiz-adv-x="613" d="M267 318Q264 318 258 318T242 317Q208 317 178 327T126 356T92 403T79 467Q79 520 98 562T153 633T240 677T355 693H708L684 596L614 579L439 -120H333L509 584H439L263 -120H157L267 318Z" />
<glyph unicode="&#xb7;" glyph-name="periodcentered" horiz-adv-x="258" d="M146 242Q125 242 108 249T79 268T61 295T55 326Q55 371 84 400T157 429Q201 429 224 404T248 347Q248 299 219 271T146 242Z" />
<glyph unicode="&#xb8;" glyph-name="cedilla" horiz-adv-x="498" d="M84 -165Q142 -160 167 -151T193 -122Q193 -110 180 -103T126 -93L149 0H219L209 -40Q266 -43 290 -61T314 -108Q314 -162 256 -189T69 -221L84 -165Z" />
<glyph unicode="&#xba;" glyph-name="ordmasculine" horiz-adv-x="514" d="M279 324Q304 324 324 347T358 404T380 474T388 537Q388 600 342 600Q317 600 297 576T263 519T242 448T234 384Q234 324 279 324ZM261 221Q170 221 117 268T64 399Q64 444 81 497T135
596T228 672T360 703Q407 703 444 690T506 653T545 597T558 525Q558 481 540 428T486 329T393 252T261 221Z" />
<glyph unicode="&#xbb;" glyph-name="guillemotright" horiz-adv-x="482" d="M261 272L249 225L103 51H-21L110 260L75 454H190L261 272ZM467 272L456 225L310 51H185L317 260L282 454H397L467 272Z" />
<glyph unicode="&#xbc;" glyph-name="onequarter" horiz-adv-x="893" d="M71 350L131 360L184 573L115 569L132 635L288 704H363L277 360L334 350L317 282H54L71 350ZM732 713H833L199 -40H98L732 713ZM641 99H459L476 170L741 418H857L796 176H848L829 99H777L752
0H616L641 99ZM660 176L687 285H684L580 179V176H660Z" />
<glyph unicode="&#xbd;" glyph-name="onehalf" horiz-adv-x="927" d="M732 713H833L199 -40H98L732 713ZM74 350L134 360L187 573L118 569L135 635L291 704H366L280 360L337 350L320 282H57L74 350ZM527 78L638 161Q698 205 725 236T753 297Q753 317 743 326T714
335Q694 335 681 327L668 273H597Q586 281 581 294T576 320Q576 340 587 359T620 392T674 416T747 425Q819 425 862 396T905 312Q905 259 866 216T740 128L682 96V93H859L828 0H507L527 78Z" />
<glyph unicode="&#xbe;" glyph-name="threequarters" horiz-adv-x="926" d="M203 277Q143 277 108 287T53 312L72 387Q90 380 115 374T173 367Q206 367 228 380T250 423Q249 441 235 449T196 457H151L169 534H212Q249 534 269 546T289 584Q289 602 278 612T246
623Q234 623 227 621T214 616L206 575H135Q127 583 122 592T116 614Q116 652 158 679T285 706Q351 706 386 680T421 610Q421 561 391 536T315 501V498Q357 491 379 471T401 413Q401 382 386 357T343 314T280 287T203 277ZM760 713H861L227 -40H126L760 713ZM675
99H493L510 170L775 418H891L830 176H882L863 99H811L786 0H650L675 99ZM694 176L721 285H718L614 179V176H694Z" />
<glyph unicode="&#xbf;" glyph-name="questiondown" horiz-adv-x="468" d="M187 -131Q87 -131 29 -90T-29 29Q-29 99 15 147T130 235Q161 253 183 266T219 291T241 318T250 350Q250 354 249 356H353Q359 339 359 317Q359 291 352 270T331 230T298 195T255 162Q232
146 215 133T185 104T167 73T160 34Q160 5 178 -11T234 -27Q240 -27 246 -26T257 -23L271 52H362Q373 41 381 27T390 -8Q390 -61 338 -96T187 -131ZM331 585Q352 585 368 578T395 560T411 535T417 507Q417 464 389 436T318 408Q298 408 282 415T255 433T238 458T232
486Q232 531 261 558T331 585Z" />
<glyph unicode="&#xc0;" glyph-name="Agrave" horiz-adv-x="723" d="M-29 97L30 114L392 693H581L627 114L679 97L654 0H323L348 97L417 114L412 205H226L174 114L235 97L211 0H-54L-29 97ZM408 301L399 495H394L282 301H408ZM362 780L419 904L627 801L588 722L362 780Z" />
<glyph unicode="&#xc1;" glyph-name="Aacute" horiz-adv-x="723" d="M-29 97L30 114L392 693H581L627 114L679 97L654 0H323L348 97L417 114L412 205H226L174 114L235 97L211 0H-54L-29 97ZM408 301L399 495H394L282 301H408ZM372 801L607 903L636 774L388 723L372 801Z" />
<glyph unicode="&#xc2;" glyph-name="Acircumflex" horiz-adv-x="723" d="M-29 97L30 114L392 693H581L627 114L679 97L654 0H323L348 97L417 114L412 205H226L174 114L235 97L211 0H-54L-29 97ZM408 301L399 495H394L282 301H408ZM330 774L476 891H562L651 768L608
723L502 775L362 723L330 774Z" />
<glyph unicode="&#xc3;" glyph-name="Atilde" horiz-adv-x="723" d="M-29 97L30 114L392 693H581L627 114L679 97L654 0H323L348 97L417 114L412 205H226L174 114L235 97L211 0H-54L-29 97ZM408 301L399 495H394L282 301H408ZM322 776Q350 821 386 850T464 879Q481
879 496 875T524 864T548 854T572 849Q603 849 632 882L693 836Q665 791 629 762T550 733Q533 733 519 738T491 748T466 759T443 764Q410 764 383 730L322 776Z" />
<glyph unicode="&#xc4;" glyph-name="Adieresis" horiz-adv-x="723" d="M-29 97L30 114L392 693H581L627 114L679 97L654 0H323L348 97L417 114L412 205H226L174 114L235 97L211 0H-54L-29 97ZM408 301L399 495H394L282 301H408ZM395 728Q359 728 336 748T312
801Q312 822 320 838T341 865T371 881T406 887Q444 887 466 867T489 815Q489 773 461 751T395 728ZM603 728Q567 728 544 748T520 801Q520 822 528 838T549 865T579 881T614 887Q652 887 674 867T697 815Q697 773 669 751T603 728Z" />
<glyph unicode="&#xc5;" glyph-name="Aring" horiz-adv-x="723" d="M-29 97L30 114L392 693H581L627 114L679 97L654 0H323L348 97L417 114L412 205H226L174 114L235 97L211 0H-54L-29 97ZM408 301L399 495H394L282 301H408ZM496 775Q518 775 532 789T546 829Q546
846 535 859T502 873Q480 873 467 859T453 819Q453 800 463 788T496 775ZM493 713Q468 713 448 721T413 744T390 777T382 817Q382 842 392 863T418 900T457 925T506 934Q531 934 551 926T586 903T608 871T616 831Q616 806 607 785T580 747T541 722T493 713Z" />
<glyph unicode="&#xc6;" glyph-name="AE" horiz-adv-x="985" d="M-29 97L31 115L449 589L384 596L408 693H1038L1009 483H898L886 582H731L687 406H740L771 471H860L805 234H722L717 301H661L614 111H784L854 233H967L904 0H318L343 97L416 114L437 198H247L177
115L252 97L228 0H-54L-29 97ZM461 295L515 513H510L328 295H461Z" />
<glyph unicode="&#xc7;" glyph-name="Ccedilla" horiz-adv-x="641" d="M165 -165Q223 -160 248 -151T274 -122Q274 -110 261 -103T207 -93L229 -4Q134 13 83 71T32 232Q32 296 44 352T79 457T133 546T202 616Q258 662 325 683T464 704Q546 704 600 692T684 664L649
466H530L520 562Q507 569 492 574T448 579Q410 579 380 564T327 519Q306 493 290 456T261 378T243 299T237 233Q236 167 263 140T345 112Q368 112 388 117T424 131L479 231H600L544 27Q499 10 444 -1T323 -13Q316 -13 312 -13T297 -12L290 -40Q347 -43 371 -61T395
-108Q395 -162 337 -189T150 -221L165 -165Z" />
<glyph unicode="&#xc8;" glyph-name="Egrave" horiz-adv-x="624" d="M295 780L352 904L560 801L521 722L295 780ZM-20 97L53 114L169 579L105 596L129 693H677L648 483H538L525 582H369L325 406H379L411 471H499L445 234H361L356 301H299L252 111H423L493 233H606L543
0H-44L-20 97Z" />
<glyph unicode="&#xc9;" glyph-name="Eacute" horiz-adv-x="624" d="M312 801L547 903L576 774L328 723L312 801ZM-20 97L53 114L169 579L105 596L129 693H677L648 483H538L525 582H369L325 406H379L411 471H499L445 234H361L356 301H299L252 111H423L493 233H606L543
0H-44L-20 97Z" />
<glyph unicode="&#xca;" glyph-name="Ecircumflex" horiz-adv-x="624" d="M267 774L413 891H499L588 768L545 723L439 775L299 723L267 774ZM-20 97L53 114L169 579L105 596L129 693H677L648 483H538L525 582H369L325 406H379L411 471H499L445 234H361L356 301H299L252
111H423L493 233H606L543 0H-44L-20 97Z" />
<glyph unicode="&#xcb;" glyph-name="Edieresis" horiz-adv-x="624" d="M-20 97L53 114L169 579L105 596L129 693H677L648 483H538L525 582H369L325 406H379L411 471H499L445 234H361L356 301H299L252 111H423L493 233H606L543 0H-44L-20 97ZM332 728Q296 728
273 748T249 801Q249 822 257 838T278 865T308 881T343 887Q381 887 403 867T426 815Q426 773 398 751T332 728ZM540 728Q504 728 481 748T457 801Q457 822 465 838T486 865T516 881T551 887Q589 887 611 867T634 815Q634 773 606 751T540 728Z" />
<glyph unicode="&#xcc;" glyph-name="Igrave" horiz-adv-x="376" d="M-20 97L55 114L171 579L104 596L129 693H472L447 596L373 579L257 114L323 97L299 0H-44L-20 97ZM431 780L488 904L696 801L657 722L431 780Z" />
<glyph unicode="&#xcd;" glyph-name="Iacute" horiz-adv-x="376" d="M-20 97L55 114L171 579L104 596L129 693H472L447 596L373 579L257 114L323 97L299 0H-44L-20 97ZM444 801L679 903L708 774L460 723L444 801Z" />
<glyph unicode="&#xce;" glyph-name="Icircumflex" horiz-adv-x="376" d="M-20 97L55 114L171 579L104 596L129 693H472L447 596L373 579L257 114L323 97L299 0H-44L-20 97ZM405 774L551 891H637L726 768L683 723L577 775L437 723L405 774Z" />
<glyph unicode="&#xcf;" glyph-name="Idieresis" horiz-adv-x="376" d="M-20 97L55 114L171 579L104 596L129 693H472L447 596L373 579L257 114L323 97L299 0H-44L-20 97ZM474 728Q438 728 415 748T391 801Q391 822 399 838T420 865T450 881T485 887Q523 887 545
867T568 815Q568 773 540 751T474 728ZM682 728Q646 728 623 748T599 801Q599 822 607 838T628 865T658 881T693 887Q731 887 753 867T776 815Q776 773 748 751T682 728Z" />
<glyph unicode="&#xd0;" glyph-name="Eth" horiz-adv-x="719" d="M67 414H128L169 579L105 596L130 693H451Q518 693 571 679T661 634T717 558T737 450Q737 361 709 280T628 136T497 37T321 0H-44L-20 97L53 114L98 295H37L67 414ZM320 117Q360 117 391 130T450
178Q467 198 482 232T508 305T526 385T533 460Q533 525 503 550T417 576H372L331 414H447L417 295H301L257 117H320Z" />
<glyph unicode="&#xd1;" glyph-name="Ntilde" horiz-adv-x="726" d="M325 776Q353 821 389 850T467 879Q484 879 499 875T527 864T551 854T575 849Q606 849 635 882L696 836Q668 791 632 762T553 733Q536 733 522 738T494 748T469 759T446 764Q413 764 386 730L325
776ZM-20 97L53 114L169 579L104 596L129 693H412L524 283H529L603 578L538 596L562 693H824L800 596L735 579L591 0H411L281 479H276L185 113L252 97L228 0H-44L-20 97Z" />
<glyph unicode="&#xd2;" glyph-name="Ograve" horiz-adv-x="705" d="M335 780L392 904L600 801L561 722L335 780ZM322 110Q356 110 382 127T430 176Q449 205 465 242T492 319T510 400T517 481Q517 534 495 558T434 583Q401 583 374 565T326 515Q307 486 291 450T263
374T245 292T238 210Q238 157 259 134T322 110ZM298 -13Q241 -13 192 3T108 52T53 131T33 238Q33 334 65 419T153 567T286 668T454 705Q514 705 564 688T649 639T703 560T723 453Q723 357 691 273T603 125T468 24T298 -13Z" />
<glyph unicode="&#xd3;" glyph-name="Oacute" horiz-adv-x="705" d="M352 801L587 903L616 774L368 723L352 801ZM322 110Q356 110 382 127T430 176Q449 205 465 242T492 319T510 400T517 481Q517 534 495 558T434 583Q401 583 374 565T326 515Q307 486 291 450T263
374T245 292T238 210Q238 157 259 134T322 110ZM298 -13Q241 -13 192 3T108 52T53 131T33 238Q33 334 65 419T153 567T286 668T454 705Q514 705 564 688T649 639T703 560T723 453Q723 357 691 273T603 125T468 24T298 -13Z" />
<glyph unicode="&#xd4;" glyph-name="Ocircumflex" horiz-adv-x="705" d="M307 774L453 891H539L628 768L585 723L479 775L339 723L307 774ZM322 110Q356 110 382 127T430 176Q449 205 465 242T492 319T510 400T517 481Q517 534 495 558T434 583Q401 583 374 565T326
515Q307 486 291 450T263 374T245 292T238 210Q238 157 259 134T322 110ZM298 -13Q241 -13 192 3T108 52T53 131T33 238Q33 334 65 419T153 567T286 668T454 705Q514 705 564 688T649 639T703 560T723 453Q723 357 691 273T603 125T468 24T298 -13Z" />
<glyph unicode="&#xd5;" glyph-name="Otilde" horiz-adv-x="705" d="M295 776Q323 821 359 850T437 879Q454 879 469 875T497 864T521 854T545 849Q576 849 605 882L666 836Q638 791 602 762T523 733Q506 733 492 738T464 748T439 759T416 764Q383 764 356 730L295
776ZM322 110Q356 110 382 127T430 176Q449 205 465 242T492 319T510 400T517 481Q517 534 495 558T434 583Q401 583 374 565T326 515Q307 486 291 450T263 374T245 292T238 210Q238 157 259 134T322 110ZM298 -13Q241 -13 192 3T108 52T53 131T33 238Q33 334 65
419T153 567T286 668T454 705Q514 705 564 688T649 639T703 560T723 453Q723 357 691 273T603 125T468 24T298 -13Z" />
<glyph unicode="&#xd6;" glyph-name="Odieresis" horiz-adv-x="705" d="M370 728Q334 728 311 748T287 801Q287 822 295 838T316 865T346 881T381 887Q419 887 441 867T464 815Q464 773 436 751T370 728ZM578 728Q542 728 519 748T495 801Q495 822 503 838T524
865T554 881T589 887Q627 887 649 867T672 815Q672 773 644 751T578 728ZM322 110Q356 110 382 127T430 176Q449 205 465 242T492 319T510 400T517 481Q517 534 495 558T434 583Q401 583 374 565T326 515Q307 486 291 450T263 374T245 292T238 210Q238 157 259
134T322 110ZM298 -13Q241 -13 192 3T108 52T53 131T33 238Q33 334 65 419T153 567T286 668T454 705Q514 705 564 688T649 639T703 560T723 453Q723 357 691 273T603 125T468 24T298 -13Z" />
<glyph unicode="&#xd7;" glyph-name="multiply" horiz-adv-x="540" d="M72 188L213 331L72 474L151 554L291 411L431 553L510 474L369 331L510 188L431 109L291 251L151 109L72 188Z" />
<glyph unicode="&#xd8;" glyph-name="Oslash" horiz-adv-x="705" d="M-2 10L74 90Q54 119 44 156T33 238Q33 334 65 419T153 567T286 668T454 705Q551 705 618 661L677 723L739 674L676 608Q699 577 711 539T723 453Q723 357 691 273T603 125T468 24T298 -13Q198
-13 130 34L61 -38L-2 10ZM318 110Q387 110 432 174Q450 200 465 232T493 300T513 374T524 448L240 150Q260 110 318 110ZM323 517Q288 465 264 396T232 256L510 547Q487 583 436 583Q369 583 323 517Z" />
<glyph unicode="&#xd9;" glyph-name="Ugrave" horiz-adv-x="711" d="M370 780L427 904L635 801L596 722L370 780ZM338 -12Q205 -12 137 37T68 175Q68 205 76 242L161 579L100 596L125 693H451L427 596L364 580L279 239Q273 215 273 194Q273 148 300 127T376 105Q430
105 458 134T502 227L590 580L535 596L560 693H810L786 596L721 579L630 212Q618 164 599 123T546 52T463 5T338 -12Z" />
<glyph unicode="&#xda;" glyph-name="Uacute" horiz-adv-x="711" d="M386 801L621 903L650 774L402 723L386 801ZM338 -12Q205 -12 137 37T68 175Q68 205 76 242L161 579L100 596L125 693H451L427 596L364 580L279 239Q273 215 273 194Q273 148 300 127T376 105Q430
105 458 134T502 227L590 580L535 596L560 693H810L786 596L721 579L630 212Q618 164 599 123T546 52T463 5T338 -12Z" />
<glyph unicode="&#xdb;" glyph-name="Ucircumflex" horiz-adv-x="711" d="M341 774L487 891H573L662 768L619 723L513 775L373 723L341 774ZM338 -12Q205 -12 137 37T68 175Q68 205 76 242L161 579L100 596L125 693H451L427 596L364 580L279 239Q273 215 273 194Q273
148 300 127T376 105Q430 105 458 134T502 227L590 580L535 596L560 693H810L786 596L721 579L630 212Q618 164 599 123T546 52T463 5T338 -12Z" />
<glyph unicode="&#xdc;" glyph-name="Udieresis" horiz-adv-x="711" d="M338 -12Q205 -12 137 37T68 175Q68 205 76 242L161 579L100 596L125 693H451L427 596L364 580L279 239Q273 215 273 194Q273 148 300 127T376 105Q430 105 458 134T502 227L590 580L535
596L560 693H810L786 596L721 579L630 212Q618 164 599 123T546 52T463 5T338 -12ZM399 728Q363 728 340 748T316 801Q316 822 324 838T345 865T375 881T410 887Q448 887 470 867T493 815Q493 773 465 751T399 728ZM607 728Q571 728 548 748T524 801Q524 822 532
838T553 865T583 881T618 887Q656 887 678 867T701 815Q701 773 673 751T607 728Z" />
<glyph unicode="&#xdd;" glyph-name="Yacute" horiz-adv-x="664" d="M123 97L200 114L242 284L150 579L100 596L124 693H428L404 596L352 581L402 393H406L544 581L499 596L524 693H764L740 596L683 579L442 273L402 114L471 97L446 0H99L123 97ZM358 801L593
903L622 774L374 723L358 801Z" />
<glyph unicode="&#xde;" glyph-name="Thorn" horiz-adv-x="638" d="M-20 97L53 114L169 579L104 596L129 693H459L435 596L372 580L363 543H420Q486 543 530 532T602 501T640 451T652 385Q652 279 581 223T379 166Q346 166 319 169T272 178L256 113L332 97L308
0H-44L-20 97ZM297 277Q309 275 324 273T354 271Q405 271 429 296T453 376Q453 406 436 419T384 433H336L297 277Z" />
<glyph unicode="&#xdf;" glyph-name="germandbls" horiz-adv-x="643" d="M-71 -199Q-94 -199 -114 -195T-150 -181T-174 -156T-183 -117Q-183 -96 -169 -74T-139 -43H-59L-70 -107Q-47 -106 -27 -88T4 -25L135 515Q150 578 176 623T239 696T325 737T435 750Q485
750 524 739T589 709T630 665T644 610Q644 569 618 537T559 478T501 430T474 390Q474 373 491 357T536 318Q549 306 563 292T590 259T610 218T618 171Q618 131 602 98T559 40T492 1T406 -13Q334 -13 291 8T247 80Q247 105 260 125T284 154H366L356 96Q371 86 397
86Q423 86 436 100T450 137Q450 158 434 176T383 224Q356 247 338 273T320 333Q320 356 330 379T357 426T391 472T426 516T452 557T463 594Q463 639 412 639Q381 639 357 616T316 528L201 69Q167 -67 103 -133T-71 -199Z" />
<glyph unicode="&#xe0;" glyph-name="agrave" horiz-adv-x="598" d="M131 -13Q104 -13 81 -5T41 22T14 68T4 138Q4 216 33 287T110 413T221 500T350 532Q380 532 403 524T439 503H444L474 534H614L481 98H559L532 19Q503 6 458 -3T370 -12Q334 -12 321 4T309 49Q309
52 310 58T313 73Q315 82 317 92H312Q274 41 229 14T131 -13ZM228 109Q251 109 277 129T325 175L394 407Q379 428 348 428Q324 428 297 407T248 350T210 265T195 159Q195 109 228 109ZM255 650L321 771L519 652L476 576L255 650Z" />
<glyph unicode="&#xe1;" glyph-name="aacute" horiz-adv-x="598" d="M131 -13Q104 -13 81 -5T41 22T14 68T4 138Q4 216 33 287T110 413T221 500T350 532Q380 532 403 524T439 503H444L474 534H614L481 98H559L532 19Q503 6 458 -3T370 -12Q334 -12 321 4T309 49Q309
52 310 58T313 73Q315 82 317 92H312Q274 41 229 14T131 -13ZM228 109Q251 109 277 129T325 175L394 407Q379 428 348 428Q324 428 297 407T248 350T210 265T195 159Q195 109 228 109ZM268 652L496 772L533 645L290 576L268 652Z" />
<glyph unicode="&#xe2;" glyph-name="acircumflex" horiz-adv-x="598" d="M131 -13Q104 -13 81 -5T41 22T14 68T4 138Q4 216 33 287T110 413T221 500T350 532Q380 532 403 524T439 503H444L474 534H614L481 98H559L532 19Q503 6 458 -3T370 -12Q334 -12 321 4T309
49Q309 52 310 58T313 73Q315 82 317 92H312Q274 41 229 14T131 -13ZM228 109Q251 109 277 129T325 175L394 407Q379 428 348 428Q324 428 297 407T248 350T210 265T195 159Q195 109 228 109ZM232 627L382 760H468L553 620L509 575L404 641L264 575L232 627Z" />
<glyph unicode="&#xe3;" glyph-name="atilde" horiz-adv-x="598" d="M131 -13Q104 -13 81 -5T41 22T14 68T4 138Q4 216 33 287T110 413T221 500T350 532Q380 532 403 524T439 503H444L474 534H614L481 98H559L532 19Q503 6 458 -3T370 -12Q334 -12 321 4T309 49Q309
52 310 58T313 73Q315 82 317 92H312Q274 41 229 14T131 -13ZM228 109Q251 109 277 129T325 175L394 407Q379 428 348 428Q324 428 297 407T248 350T210 265T195 159Q195 109 228 109ZM218 631Q246 676 282 704T360 733Q377 733 392 729T420 718T444 708T468 703Q499
703 528 736L589 690Q561 645 525 617T446 588Q429 588 415 592T387 603T362 613T339 618Q306 618 279 585L218 631Z" />
<glyph unicode="&#xe4;" glyph-name="adieresis" horiz-adv-x="598" d="M131 -13Q104 -13 81 -5T41 22T14 68T4 138Q4 216 33 287T110 413T221 500T350 532Q380 532 403 524T439 503H444L474 534H614L481 98H559L532 19Q503 6 458 -3T370 -12Q334 -12 321 4T309
49Q309 52 310 58T313 73Q315 82 317 92H312Q274 41 229 14T131 -13ZM228 109Q251 109 277 129T325 175L394 407Q379 428 348 428Q324 428 297 407T248 350T210 265T195 159Q195 109 228 109ZM293 587Q257 587 234 607T211 660Q211 702 239 724T305 746Q342 746
364 726T387 673Q387 631 359 609T293 587ZM501 587Q465 587 442 607T419 660Q419 702 447 724T513 746Q550 746 572 726T595 673Q595 631 567 609T501 587Z" />
<glyph unicode="&#xe5;" glyph-name="aring" horiz-adv-x="598" d="M131 -13Q104 -13 81 -5T41 22T14 68T4 138Q4 216 33 287T110 413T221 500T350 532Q380 532 403 524T439 503H444L474 534H614L481 98H559L532 19Q503 6 458 -3T370 -12Q334 -12 321 4T309 49Q309
52 310 58T313 73Q315 82 317 92H312Q274 41 229 14T131 -13ZM228 109Q251 109 277 129T325 175L394 407Q379 428 348 428Q324 428 297 407T248 350T210 265T195 159Q195 109 228 109ZM407 638Q429 638 443 652T457 692Q457 709 446 722T413 736Q391 736 378 722T364
682Q364 663 374 651T407 638ZM404 576Q353 576 323 606T293 680Q293 705 303 726T329 762T368 787T417 796Q468 796 497 766T527 694Q527 669 518 648T491 610T452 585T404 576Z" />
<glyph unicode="&#xe6;" glyph-name="ae" horiz-adv-x="790" d="M560 111Q598 111 642 121T726 149L702 53Q668 26 615 7T491 -13Q422 -13 376 11T307 77Q272 34 226 11T135 -13Q62 -13 28 22T-7 110Q-7 153 6 184T45 238T113 273T210 293L308 305L318 342Q323
367 323 381Q323 440 262 440Q244 440 234 437T217 430L200 365H101Q89 373 79 387T69 418Q69 444 83 467T124 508T194 536T294 546Q355 546 394 528T453 478Q490 510 535 528T635 546Q673 546 706 538T763 514T800 474T814 417Q814 376 796 343T736 286T627 245T464
221V203Q464 160 484 136T560 111ZM284 178Q284 202 287 226L238 224Q166 221 166 143Q166 120 177 107T212 93Q229 93 248 102T288 132Q284 151 284 178ZM608 444Q590 444 572 433T537 404T506 360T482 305Q527 308 557 318T606 342T632 374T640 413Q640 444 608
444Z" />
<glyph unicode="&#xe7;" glyph-name="ccedilla" horiz-adv-x="476" d="M67 -165Q125 -160 150 -151T176 -122Q176 -110 163 -103T109 -93L132 0Q73 19 43 64T12 176Q12 258 42 326T122 443T239 519T377 546Q451 546 482 521T513 460Q513 445 508 430T496 402T479
377T461 360H353L367 440H364Q331 440 302 420T250 367T214 289T200 198Q200 153 219 132T286 111Q310 111 348 119T426 145L403 49Q374 26 327 7T219 -13Q214 -13 211 -13T199 -12L192 -40Q249 -43 273 -61T297 -108Q297 -162 239 -189T52 -221L67 -165Z" />
<glyph unicode="&#xe8;" glyph-name="egrave" horiz-adv-x="515" d="M218 -13Q116 -13 64 38T12 178Q12 260 42 327T120 443T232 519T361 546Q399 546 431 538T488 514T525 474T539 417Q539 376 521 343T461 283T354 238T191 210V203Q191 160 211 136T286 111Q324
111 367 121T451 149L428 52Q393 25 341 6T218 -13ZM334 444Q316 444 297 432T261 400T229 352T205 294Q251 300 282 311T331 339T357 373T365 413Q365 444 334 444ZM231 650L297 771L495 652L452 576L231 650Z" />
<glyph unicode="&#xe9;" glyph-name="eacute" horiz-adv-x="515" d="M241 652L469 772L506 645L263 576L241 652ZM218 -13Q116 -13 64 38T12 178Q12 260 42 327T120 443T232 519T361 546Q399 546 431 538T488 514T525 474T539 417Q539 376 521 343T461 283T354
238T191 210V203Q191 160 211 136T286 111Q324 111 367 121T451 149L428 52Q393 25 341 6T218 -13ZM334 444Q316 444 297 432T261 400T229 352T205 294Q251 300 282 311T331 339T357 373T365 413Q365 444 334 444Z" />
<glyph unicode="&#xea;" glyph-name="ecircumflex" horiz-adv-x="515" d="M203 627L353 760H439L524 620L480 575L375 641L235 575L203 627ZM218 -13Q116 -13 64 38T12 178Q12 260 42 327T120 443T232 519T361 546Q399 546 431 538T488 514T525 474T539 417Q539
376 521 343T461 283T354 238T191 210V203Q191 160 211 136T286 111Q324 111 367 121T451 149L428 52Q393 25 341 6T218 -13ZM334 444Q316 444 297 432T261 400T229 352T205 294Q251 300 282 311T331 339T357 373T365 413Q365 444 334 444Z" />
<glyph unicode="&#xeb;" glyph-name="edieresis" horiz-adv-x="515" d="M266 587Q230 587 207 607T184 660Q184 702 212 724T278 746Q315 746 337 726T360 673Q360 631 332 609T266 587ZM474 587Q438 587 415 607T392 660Q392 702 420 724T486 746Q523 746 545
726T568 673Q568 631 540 609T474 587ZM218 -13Q116 -13 64 38T12 178Q12 260 42 327T120 443T232 519T361 546Q399 546 431 538T488 514T525 474T539 417Q539 376 521 343T461 283T354 238T191 210V203Q191 160 211 136T286 111Q324 111 367 121T451 149L428 52Q393
25 341 6T218 -13ZM334 444Q316 444 297 432T261 400T229 352T205 294Q251 300 282 311T331 339T357 373T365 413Q365 444 334 444Z" />
<glyph unicode="&#xec;" glyph-name="igrave" horiz-adv-x="326" d="M91 -12Q71 -12 54 -8T26 7T12 35T17 78L122 425H49L74 516L321 545L335 537L202 98H287L260 19Q231 6 186 -3T91 -12ZM363 650L429 771L627 652L584 576L363 650Z" />
<glyph unicode="&#xed;" glyph-name="iacute" horiz-adv-x="326" d="M375 652L603 772L640 645L397 576L375 652ZM91 -12Q71 -12 54 -8T26 7T12 35T17 78L122 425H49L74 516L321 545L335 537L202 98H287L260 19Q231 6 186 -3T91 -12Z" />
<glyph unicode="&#xee;" glyph-name="icircumflex" horiz-adv-x="326" d="M340 627L490 760H576L661 620L617 575L512 641L372 575L340 627ZM91 -12Q71 -12 54 -8T26 7T12 35T17 78L122 425H49L74 516L321 545L335 537L202 98H287L260 19Q231 6 186 -3T91 -12Z" />
<glyph unicode="&#xef;" glyph-name="idieresis" horiz-adv-x="326" d="M400 587Q364 587 341 607T318 660Q318 702 346 724T412 746Q449 746 471 726T494 673Q494 631 466 609T400 587ZM608 587Q572 587 549 607T526 660Q526 702 554 724T620 746Q657 746 679
726T702 673Q702 631 674 609T608 587ZM91 -12Q71 -12 54 -8T26 7T12 35T17 78L122 425H49L74 516L321 545L335 537L202 98H287L260 19Q231 6 186 -3T91 -12Z" />
<glyph unicode="&#xf0;" glyph-name="eth" horiz-adv-x="577" d="M261 622Q246 633 231 643T200 663L277 753Q315 738 350 721T416 684L521 726L542 668L472 640Q524 592 552 530T581 386Q581 304 555 232T483 105T374 19T235 -13Q178 -13 136 2T66 45T24 107T10
184Q10 263 35 324T101 428T191 492T290 514Q319 514 337 510T367 497H371Q360 520 346 539T314 577L178 523L157 581L261 622ZM253 95Q281 95 305 119T347 184T375 273T385 373Q385 380 385 385T384 396Q373 407 361 412T326 418Q297 418 273 393T231 330T204
248T194 166Q194 131 209 113T253 95Z" />
<glyph unicode="&#xf1;" glyph-name="ntilde" horiz-adv-x="625" d="M395 -12Q350 -12 328 9T321 78L404 340Q412 364 412 377Q412 399 391 399Q376 399 360 392T327 372T294 342T263 307L168 0H-10L117 425H49L74 516L296 545L310 537L276 413H281Q330 478 388
512T502 546Q521 546 540 541T574 523T598 491T607 443Q607 414 595 374L507 98H586L559 19Q530 6 484 -3T395 -12ZM228 631Q256 676 292 704T370 733Q387 733 402 729T430 718T454 708T478 703Q509 703 538 736L599 690Q571 645 535 617T456 588Q439 588 425 592T397
603T372 613T349 618Q316 618 289 585L228 631Z" />
<glyph unicode="&#xf2;" glyph-name="ograve" horiz-adv-x="585" d="M255 94Q291 94 316 124T358 196T382 283T390 360Q390 394 378 416T337 439Q313 439 294 425T259 389T233 337T215 279T204 221T200 173Q200 138 213 116T255 94ZM236 -13Q131 -13 72 42T13
195Q13 227 21 266T48 344T93 419T159 484T246 529T355 546Q410 546 451 531T521 488T564 422T579 338Q579 306 571 267T544 189T499 114T433 49T346 4T236 -13ZM234 650L300 771L498 652L455 576L234 650Z" />
<glyph unicode="&#xf3;" glyph-name="oacute" horiz-adv-x="585" d="M246 652L474 772L511 645L268 576L246 652ZM255 94Q291 94 316 124T358 196T382 283T390 360Q390 394 378 416T337 439Q313 439 294 425T259 389T233 337T215 279T204 221T200 173Q200 138
213 116T255 94ZM236 -13Q131 -13 72 42T13 195Q13 227 21 266T48 344T93 419T159 484T246 529T355 546Q410 546 451 531T521 488T564 422T579 338Q579 306 571 267T544 189T499 114T433 49T346 4T236 -13Z" />
<glyph unicode="&#xf4;" glyph-name="ocircumflex" horiz-adv-x="585" d="M211 627L361 760H447L532 620L488 575L383 641L243 575L211 627ZM255 94Q291 94 316 124T358 196T382 283T390 360Q390 394 378 416T337 439Q313 439 294 425T259 389T233 337T215 279T204
221T200 173Q200 138 213 116T255 94ZM236 -13Q131 -13 72 42T13 195Q13 227 21 266T48 344T93 419T159 484T246 529T355 546Q410 546 451 531T521 488T564 422T579 338Q579 306 571 267T544 189T499 114T433 49T346 4T236 -13Z" />
<glyph unicode="&#xf5;" glyph-name="otilde" horiz-adv-x="585" d="M255 94Q291 94 316 124T358 196T382 283T390 360Q390 394 378 416T337 439Q313 439 294 425T259 389T233 337T215 279T204 221T200 173Q200 138 213 116T255 94ZM236 -13Q131 -13 72 42T13
195Q13 227 21 266T48 344T93 419T159 484T246 529T355 546Q410 546 451 531T521 488T564 422T579 338Q579 306 571 267T544 189T499 114T433 49T346 4T236 -13ZM196 631Q224 676 260 704T338 733Q355 733 370 729T398 718T422 708T446 703Q477 703 506 736L567
690Q539 645 503 617T424 588Q407 588 393 592T365 603T340 613T317 618Q284 618 257 585L196 631Z" />
<glyph unicode="&#xf6;" glyph-name="odieresis" horiz-adv-x="585" d="M267 587Q231 587 208 607T185 660Q185 702 213 724T279 746Q316 746 338 726T361 673Q361 631 333 609T267 587ZM475 587Q439 587 416 607T393 660Q393 702 421 724T487 746Q524 746 546
726T569 673Q569 631 541 609T475 587ZM255 94Q291 94 316 124T358 196T382 283T390 360Q390 394 378 416T337 439Q313 439 294 425T259 389T233 337T215 279T204 221T200 173Q200 138 213 116T255 94ZM236 -13Q131 -13 72 42T13 195Q13 227 21 266T48 344T93 419T159
484T246 529T355 546Q410 546 451 531T521 488T564 422T579 338Q579 306 571 267T544 189T499 114T433 49T346 4T236 -13Z" />
<glyph unicode="&#xf7;" glyph-name="divide" horiz-adv-x="540" d="M293 51Q252 51 226 77T200 139Q200 176 226 202T293 228Q335 228 361 202T387 139Q387 104 361 78T293 51ZM68 399H518V281H68V399ZM293 452Q273 452 256 459T227 478T207 506T200 540Q200
576 226 602T293 629Q335 629 361 603T387 540Q387 522 380 506T361 478T331 459T293 452Z" />
<glyph unicode="&#xf8;" glyph-name="oslash" horiz-adv-x="585" d="M-13 8L49 70Q13 119 13 195Q13 227 21 266T48 344T93 419T159 484T246 529T355 546Q395 546 428 538T487 514L540 567L593 519L540 466Q579 413 579 338Q579 306 571 267T544 189T499 114T433
49T346 4T236 -13Q194 -13 161 -4T100 22L39 -40L-13 8ZM255 93Q287 93 311 115T353 172T381 246T396 320L200 122Q216 93 255 93ZM337 440Q305 440 280 418T237 362T208 289T192 215L387 412Q371 440 337 440Z" />
<glyph unicode="&#xf9;" glyph-name="ugrave" horiz-adv-x="621" d="M127 -13Q106 -13 87 -8T53 9T30 40T21 86Q21 119 34 159L114 425H49L74 516L312 545L326 537L222 186Q214 162 214 148Q214 125 236 125Q263 125 293 149T353 202L455 534H634L504 98H582L555
19Q527 6 482 -3T393 -12Q358 -12 344 3T332 48Q332 56 336 73T343 103H338Q290 49 236 18T127 -13ZM266 650L332 771L530 652L487 576L266 650Z" />
<glyph unicode="&#xfa;" glyph-name="uacute" horiz-adv-x="621" d="M278 652L506 772L543 645L300 576L278 652ZM127 -13Q106 -13 87 -8T53 9T30 40T21 86Q21 119 34 159L114 425H49L74 516L312 545L326 537L222 186Q214 162 214 148Q214 125 236 125Q263 125
293 149T353 202L455 534H634L504 98H582L555 19Q527 6 482 -3T393 -12Q358 -12 344 3T332 48Q332 56 336 73T343 103H338Q290 49 236 18T127 -13Z" />
<glyph unicode="&#xfb;" glyph-name="ucircumflex" horiz-adv-x="621" d="M243 627L393 760H479L564 620L520 575L415 641L275 575L243 627ZM127 -13Q106 -13 87 -8T53 9T30 40T21 86Q21 119 34 159L114 425H49L74 516L312 545L326 537L222 186Q214 162 214 148Q214
125 236 125Q263 125 293 149T353 202L455 534H634L504 98H582L555 19Q527 6 482 -3T393 -12Q358 -12 344 3T332 48Q332 56 336 73T343 103H338Q290 49 236 18T127 -13Z" />
<glyph unicode="&#xfc;" glyph-name="udieresis" horiz-adv-x="621" d="M302 587Q266 587 243 607T220 660Q220 702 248 724T314 746Q351 746 373 726T396 673Q396 631 368 609T302 587ZM510 587Q474 587 451 607T428 660Q428 702 456 724T522 746Q559 746 581
726T604 673Q604 631 576 609T510 587ZM127 -13Q106 -13 87 -8T53 9T30 40T21 86Q21 119 34 159L114 425H49L74 516L312 545L326 537L222 186Q214 162 214 148Q214 125 236 125Q263 125 293 149T353 202L455 534H634L504 98H582L555 19Q527 6 482 -3T393 -12Q358
-12 344 3T332 48Q332 56 336 73T343 103H338Q290 49 236 18T127 -13Z" />
<glyph unicode="&#xfd;" glyph-name="yacute" horiz-adv-x="542" d="M7 -96Q36 -91 63 -76T114 -44Q116 29 116 99T113 231T107 343T99 425H32L57 516Q89 528 123 536T191 545Q231 545 250 531T274 479Q279 444 281 399T283 304T280 204T275 108H279Q307 147 332
190T378 276T412 357T432 425H358L382 509Q408 526 437 536T502 546Q531 546 549 530T568 473Q568 421 544 354T479 216T386 79T277 -40Q192 -118 120 -158T-22 -199Q-81 -199 -104 -176T-129 -114Q-128 -87 -114 -65T-84 -31H21L7 -96ZM229 652L457 772L494 645L251
576L229 652Z" />
<glyph unicode="&#xfe;" glyph-name="thorn" horiz-adv-x="597" d="M-117 -111L-47 -97L161 610L96 617L124 714L364 752L379 743L289 438H295Q333 485 377 515T476 546Q533 546 565 507T597 396Q597 310 573 236T505 106T399 19T259 -13Q248 -13 235 -12T208
-9T182 -3T162 6L132 -97L207 -111L181 -200H-143L-117 -111ZM252 95Q289 95 317 118T365 177T394 255T404 335Q404 364 396 381T365 399Q339 399 312 376T256 320L194 111Q206 103 218 99T252 95Z" />
<glyph unicode="&#xff;" glyph-name="ydieresis" horiz-adv-x="542" d="M7 -96Q36 -91 63 -76T114 -44Q116 29 116 99T113 231T107 343T99 425H32L57 516Q89 528 123 536T191 545Q231 545 250 531T274 479Q279 444 281 399T283 304T280 204T275 108H279Q307 147
332 190T378 276T412 357T432 425H358L382 509Q408 526 437 536T502 546Q531 546 549 530T568 473Q568 421 544 354T479 216T386 79T277 -40Q192 -118 120 -158T-22 -199Q-81 -199 -104 -176T-129 -114Q-128 -87 -114 -65T-84 -31H21L7 -96ZM251 587Q215 587 192
607T169 660Q169 702 197 724T263 746Q300 746 322 726T345 673Q345 631 317 609T251 587ZM459 587Q423 587 400 607T377 660Q377 702 405 724T471 746Q508 746 530 726T553 673Q553 631 525 609T459 587Z" />
<glyph unicode="&#x100;" glyph-name="Amacron" horiz-adv-x="723" d="M-29 97L30 114L392 693H581L627 114L679 97L654 0H323L348 97L417 114L412 205H226L174 114L235 97L211 0H-54L-29 97ZM408 301L399 495H394L282 301H408ZM373 846H662L635 736H346L373 846Z" />
<glyph unicode="&#x101;" glyph-name="amacron" horiz-adv-x="598" d="M275 706H554L527 596H248L275 706ZM131 -13Q104 -13 81 -5T41 22T14 68T4 138Q4 216 33 287T110 413T221 500T350 532Q380 532 403 524T439 503H444L474 534H614L481 98H559L532 19Q503 6
458 -3T370 -12Q334 -12 321 4T309 49Q309 52 310 58T313 73Q315 82 317 92H312Q274 41 229 14T131 -13ZM228 109Q251 109 277 129T325 175L394 407Q379 428 348 428Q324 428 297 407T248 350T210 265T195 159Q195 109 228 109Z" />
<glyph unicode="&#x102;" glyph-name="Abreve" horiz-adv-x="723" d="M493 725Q455 725 427 736T382 767T356 812T350 866H454Q455 850 466 841T501 831Q523 831 539 840T562 866H667Q653 804 610 765T493 725ZM-29 97L30 114L392 693H581L627 114L679 97L654
0H323L348 97L417 114L412 205H226L174 114L235 97L211 0H-54L-29 97ZM408 301L399 495H394L282 301H408Z" />
<glyph unicode="&#x103;" glyph-name="abreve" horiz-adv-x="598" d="M131 -13Q104 -13 81 -5T41 22T14 68T4 138Q4 216 33 287T110 413T221 500T350 532Q380 532 403 524T439 503H444L474 534H614L481 98H559L532 19Q503 6 458 -3T370 -12Q334 -12 321 4T309
49Q309 52 310 58T313 73Q315 82 317 92H312Q274 41 229 14T131 -13ZM228 109Q251 109 277 129T325 175L394 407Q379 428 348 428Q324 428 297 407T248 350T210 265T195 159Q195 109 228 109ZM399 585Q361 585 333 597T288 629T263 677T258 734H362Q362 716 374
706T409 695Q431 695 447 705T470 734H575Q568 702 554 675T517 628T465 597T399 585Z" />
<glyph unicode="&#x104;" glyph-name="Aogonek" horiz-adv-x="723" d="M500 -197Q443 -197 414 -176T386 -119Q386 -97 396 -79T424 -46T463 -20T506 0H323L348 97L417 114L412 205H226L174 114L235 97L211 0H-54L-29 97L30 114L392 693H581L627 114L679 97L654
0H605Q594 -9 583 -18T561 -39T544 -63T537 -89Q537 -103 546 -109T571 -115Q579 -115 585 -114T598 -112L581 -182Q565 -189 544 -193T500 -197ZM408 301L399 495H394L282 301H408Z" />
<glyph unicode="&#x105;" glyph-name="aogonek" horiz-adv-x="598" d="M362 -197Q305 -197 276 -176T248 -119Q248 -100 256 -83T279 -53T311 -28T347 -9Q324 -4 316 11T309 49Q309 55 312 68T317 92H312Q274 41 229 14T131 -13Q104 -13 81 -5T41 22T14 68T4 138Q4
216 33 287T110 413T221 500T350 532Q380 532 403 524T439 503H444L474 534H614L481 98H559L532 19Q501 7 479 -1T437 -25Q423 -36 411 -52T399 -89Q399 -103 408 -109T433 -115Q441 -115 447 -114T460 -112L443 -182Q427 -189 406 -193T362 -197ZM228 109Q251
109 277 129T325 175L394 407Q379 428 348 428Q324 428 297 407T248 350T210 265T195 159Q195 109 228 109Z" />
<glyph unicode="&#x106;" glyph-name="Cacute" horiz-adv-x="641" d="M323 -13Q185 -13 109 47T32 232Q32 296 44 352T79 457T133 546T202 616Q258 662 325 683T464 704Q546 704 600 692T684 664L649 466H530L520 562Q507 569 492 574T448 579Q410 579 380 564T327
519Q306 493 290 456T261 378T243 299T237 233Q236 167 263 140T345 112Q368 112 388 117T424 131L479 231H600L544 27Q499 10 444 -1T323 -13ZM345 801L580 903L609 774L361 723L345 801Z" />
<glyph unicode="&#x107;" glyph-name="cacute" horiz-adv-x="476" d="M353 360L367 440H364Q331 440 302 420T250 367T214 289T200 198Q200 153 219 132T286 111Q310 111 348 119T426 145L403 49Q374 26 327 7T219 -13Q119 -13 66 37T12 176Q12 258 42 326T122
443T239 519T377 546Q451 546 482 521T513 460Q513 445 508 430T496 402T479 377T461 360H353ZM242 652L470 772L507 645L264 576L242 652Z" />
<glyph unicode="&#x108;" glyph-name="Ccircumflex" horiz-adv-x="641" d="M300 774L446 891H532L621 768L578 723L472 775L332 723L300 774ZM323 -13Q185 -13 109 47T32 232Q32 296 44 352T79 457T133 546T202 616Q258 662 325 683T464 704Q546 704 600 692T684
664L649 466H530L520 562Q507 569 492 574T448 579Q410 579 380 564T327 519Q306 493 290 456T261 378T243 299T237 233Q236 167 263 140T345 112Q368 112 388 117T424 131L479 231H600L544 27Q499 10 444 -1T323 -13Z" />
<glyph unicode="&#x109;" glyph-name="ccircumflex" horiz-adv-x="476" d="M353 360L367 440H364Q331 440 302 420T250 367T214 289T200 198Q200 153 219 132T286 111Q310 111 348 119T426 145L403 49Q374 26 327 7T219 -13Q119 -13 66 37T12 176Q12 258 42 326T122
443T239 519T377 546Q451 546 482 521T513 460Q513 445 508 430T496 402T479 377T461 360H353ZM207 627L357 760H443L528 620L484 575L379 641L239 575L207 627Z" />
<glyph unicode="&#x10a;" glyph-name="Cdotaccent" horiz-adv-x="641" d="M468 727Q427 727 402 748T376 806Q376 828 385 845T408 875T441 893T480 900Q521 900 546 879T572 821Q572 798 564 781T541 751T507 733T468 727ZM323 -13Q185 -13 109 47T32 232Q32
296 44 352T79 457T133 546T202 616Q258 662 325 683T464 704Q546 704 600 692T684 664L649 466H530L520 562Q507 569 492 574T448 579Q410 579 380 564T327 519Q306 493 290 456T261 378T243 299T237 233Q236 167 263 140T345 112Q368 112 388 117T424 131L479
231H600L544 27Q499 10 444 -1T323 -13Z" />
<glyph unicode="&#x10b;" glyph-name="cdotaccent" horiz-adv-x="476" d="M353 360L367 440H364Q331 440 302 420T250 367T214 289T200 198Q200 153 219 132T286 111Q310 111 348 119T426 145L403 49Q374 26 327 7T219 -13Q119 -13 66 37T12 176Q12 258 42 326T122
443T239 519T377 546Q451 546 482 521T513 460Q513 445 508 430T496 402T479 377T461 360H353ZM373 584Q332 584 307 605T281 663Q281 685 290 702T313 732T346 750T385 757Q427 757 452 736T477 678Q477 655 469 638T446 608T412 590T373 584Z" />
<glyph unicode="&#x10c;" glyph-name="Ccaron" horiz-adv-x="641" d="M641 843L495 726H409L320 850L364 895L470 843L610 895L641 843ZM323 -13Q185 -13 109 47T32 232Q32 296 44 352T79 457T133 546T202 616Q258 662 325 683T464 704Q546 704 600 692T684 664L649
466H530L520 562Q507 569 492 574T448 579Q410 579 380 564T327 519Q306 493 290 456T261 378T243 299T237 233Q236 167 263 140T345 112Q368 112 388 117T424 131L479 231H600L544 27Q499 10 444 -1T323 -13Z" />
<glyph unicode="&#x10d;" glyph-name="ccaron" horiz-adv-x="476" d="M231 721L275 766L380 701L520 766L551 715L402 582H316L231 721ZM353 360L367 440H364Q331 440 302 420T250 367T214 289T200 198Q200 153 219 132T286 111Q310 111 348 119T426 145L403 49Q374
26 327 7T219 -13Q119 -13 66 37T12 176Q12 258 42 326T122 443T239 519T377 546Q451 546 482 521T513 460Q513 445 508 430T496 402T479 377T461 360H353Z" />
<glyph unicode="&#x10e;" glyph-name="Dcaron" horiz-adv-x="722" d="M619 843L473 726H387L298 850L342 895L448 843L588 895L619 843ZM-20 97L53 114L169 579L105 596L130 693H451Q518 693 571 679T661 634T719 558T739 450Q739 361 711 280T629 136T498 37T321
0H-44L-20 97ZM320 117Q360 117 391 130T450 178Q467 198 482 232T508 305T526 385T533 460Q533 525 503 550T417 576H372L257 117H320Z" />
<glyph unicode="&#x10f;" glyph-name="dcaron" horiz-adv-x="616" d="M142 -13Q114 -13 90 -5T47 22T17 70T6 141Q6 224 35 298T115 427T231 514T369 546Q392 546 411 542T446 531L469 612L406 621L432 714L661 751L677 743L501 98H579L552 19Q540 13 521 8T480
-2T434 -9T389 -12Q346 -12 335 12T331 71L336 92H331Q293 43 244 15T142 -13ZM239 113Q251 113 264 118T292 133T319 154T344 181L410 418Q402 427 391 432T366 438Q336 438 306 417T252 359T213 274T197 171Q197 140 209 127T239 113ZM661 573L721 750L856 727L748
556L661 573Z" />
<glyph unicode="&#x110;" glyph-name="Dcroat" horiz-adv-x="719" d="M67 414H128L169 579L105 596L130 693H451Q518 693 571 679T661 634T717 558T737 450Q737 361 709 280T628 136T497 37T321 0H-44L-20 97L53 114L98 295H37L67 414ZM320 117Q360 117 391 130T450
178Q467 198 482 232T508 305T526 385T533 460Q533 525 503 550T417 576H372L331 414H447L417 295H301L257 117H320Z" />
<glyph unicode="&#x111;" glyph-name="dcroat" horiz-adv-x="616" d="M332 622H471L477 643L413 649L432 714L661 751L677 743L644 622H702L689 574H631L501 98H579L552 19Q540 13 521 8T480 -2T434 -9T389 -12Q346 -12 335 12T331 71L336 92H331Q293 43 244 15T142
-13Q114 -13 90 -5T47 22T17 70T6 141Q6 224 35 298T115 427T231 514T369 546Q392 546 411 542T446 531L458 574H319L332 622ZM239 113Q251 113 264 118T292 133T319 154T344 181L410 418Q402 427 391 432T366 438Q336 438 306 417T252 359T213 274T197 171Q197
140 209 127T239 113Z" />
<glyph unicode="&#x112;" glyph-name="Emacron" horiz-adv-x="624" d="M-20 97L53 114L169 579L105 596L129 693H677L648 483H538L525 582H369L325 406H379L411 471H499L445 234H361L356 301H299L252 111H423L493 233H606L543 0H-44L-20 97ZM306 846H595L568 736H279L306
846Z" />
<glyph unicode="&#x113;" glyph-name="emacron" horiz-adv-x="515" d="M218 -13Q116 -13 64 38T12 178Q12 260 42 327T120 443T232 519T361 546Q399 546 431 538T488 514T525 474T539 417Q539 376 521 343T461 283T354 238T191 210V203Q191 160 211 136T286 111Q324
111 367 121T451 149L428 52Q393 25 341 6T218 -13ZM334 444Q316 444 297 432T261 400T229 352T205 294Q251 300 282 311T331 339T357 373T365 413Q365 444 334 444ZM248 706H527L500 596H221L248 706Z" />
<glyph unicode="&#x114;" glyph-name="Ebreve" horiz-adv-x="624" d="M-20 97L53 114L169 579L105 596L129 693H677L648 483H538L525 582H369L325 406H379L411 471H499L445 234H361L356 301H299L252 111H423L493 233H606L543 0H-44L-20 97ZM430 725Q392 725 364
736T319 767T293 812T287 866H391Q392 850 403 841T438 831Q460 831 476 840T499 866H604Q590 804 547 765T430 725Z" />
<glyph unicode="&#x115;" glyph-name="ebreve" horiz-adv-x="515" d="M369 585Q331 585 303 597T258 629T233 677T228 734H332Q332 716 344 706T379 695Q401 695 417 705T440 734H545Q538 702 524 675T487 628T435 597T369 585ZM218 -13Q116 -13 64 38T12 178Q12
260 42 327T120 443T232 519T361 546Q399 546 431 538T488 514T525 474T539 417Q539 376 521 343T461 283T354 238T191 210V203Q191 160 211 136T286 111Q324 111 367 121T451 149L428 52Q393 25 341 6T218 -13ZM334 444Q316 444 297 432T261 400T229 352T205 294Q251
300 282 311T331 339T357 373T365 413Q365 444 334 444Z" />
<glyph unicode="&#x116;" glyph-name="Edotaccent" horiz-adv-x="624" d="M436 727Q395 727 370 748T344 806Q344 828 353 845T376 875T409 893T448 900Q489 900 514 879T540 821Q540 798 532 781T509 751T475 733T436 727ZM-20 97L53 114L169 579L105 596L129
693H677L648 483H538L525 582H369L325 406H379L411 471H499L445 234H361L356 301H299L252 111H423L493 233H606L543 0H-44L-20 97Z" />
<glyph unicode="&#x117;" glyph-name="edotaccent" horiz-adv-x="515" d="M372 584Q331 584 306 605T280 663Q280 685 289 702T312 732T345 750T384 757Q426 757 451 736T476 678Q476 655 468 638T445 608T411 590T372 584ZM218 -13Q116 -13 64 38T12 178Q12 260
42 327T120 443T232 519T361 546Q399 546 431 538T488 514T525 474T539 417Q539 376 521 343T461 283T354 238T191 210V203Q191 160 211 136T286 111Q324 111 367 121T451 149L428 52Q393 25 341 6T218 -13ZM334 444Q316 444 297 432T261 400T229 352T205 294Q251
300 282 311T331 339T357 373T365 413Q365 444 334 444Z" />
<glyph unicode="&#x118;" glyph-name="Eogonek" horiz-adv-x="624" d="M-20 97L53 114L169 579L105 596L129 693H677L648 483H538L525 582H369L325 406H379L411 471H499L445 234H361L356 301H299L252 111H423L493 233H606L543 0H486Q475 -9 464 -18T443 -39T427
-63T420 -89Q420 -103 429 -109T453 -115Q461 -115 467 -114T480 -112L463 -182Q448 -189 427 -193T382 -197Q325 -197 297 -176T268 -119Q268 -98 278 -80T304 -46T341 -20T382 0H-44L-20 97Z" />
<glyph unicode="&#x119;" glyph-name="eogonek" horiz-adv-x="515" d="M428 52Q405 35 380 23T328 -6Q319 -12 308 -20T287 -39T271 -62T264 -89Q264 -103 273 -109T298 -115Q306 -115 312 -114T325 -112L308 -182Q292 -189 271 -193T227 -197Q170 -197 141 -176T113
-119Q113 -100 122 -84T147 -55T180 -32T215 -13H214Q116 -13 64 38T12 178Q12 260 42 327T120 443T232 519T361 546Q399 546 431 538T488 514T525 474T539 417Q539 376 521 343T461 283T354 238T191 210V203Q191 160 211 136T286 111Q324 111 367 121T451 149L428
52ZM334 444Q316 444 297 432T261 400T229 352T205 294Q251 300 282 311T331 339T357 373T365 413Q365 444 334 444Z" />
<glyph unicode="&#x11a;" glyph-name="Ecaron" horiz-adv-x="624" d="M607 843L461 726H375L286 850L330 895L436 843L576 895L607 843ZM-20 97L53 114L169 579L105 596L129 693H677L648 483H538L525 582H369L325 406H379L411 471H499L445 234H361L356 301H299L252
111H423L493 233H606L543 0H-44L-20 97Z" />
<glyph unicode="&#x11b;" glyph-name="ecaron" horiz-adv-x="515" d="M218 -13Q116 -13 64 38T12 178Q12 260 42 327T120 443T232 519T361 546Q399 546 431 538T488 514T525 474T539 417Q539 376 521 343T461 283T354 238T191 210V203Q191 160 211 136T286 111Q324
111 367 121T451 149L428 52Q393 25 341 6T218 -13ZM334 444Q316 444 297 432T261 400T229 352T205 294Q251 300 282 311T331 339T357 373T365 413Q365 444 334 444ZM231 721L275 766L380 701L520 766L551 715L402 582H316L231 721Z" />
<glyph unicode="&#x11c;" glyph-name="Gcircumflex" horiz-adv-x="701" d="M334 -12Q192 -12 113 51T34 236Q34 351 78 449T209 617Q263 662 334 683T490 705Q561 705 613 694T694 669L666 469H545L534 563Q522 571 507 575T463 579Q424 579 392 563T334 517Q315
494 298 460T267 387T245 307T237 230Q237 164 266 137T349 110Q366 110 380 113T406 121L434 231L377 247L401 344H704L679 247L624 231L573 26Q530 12 468 0T334 -12ZM323 774L469 891H555L644 768L601 723L495 775L355 723L323 774Z" />
<glyph unicode="&#x11d;" glyph-name="gcircumflex" horiz-adv-x="508" d="M431 627L581 760H667L752 620L708 575L603 641L463 575L431 627ZM175 -202Q107 -202 57 -193T-25 -167T-73 -128T-89 -79Q-89 -36 -49 -4T55 49Q51 61 51 75Q51 97 58 116T76 152T101
183T129 211Q92 228 70 259T48 338Q48 395 71 434T131 498T209 534T290 545Q348 545 387 529L577 549L547 443L468 455Q476 442 481 427T487 392Q487 337 464 298T405 235T327 199T247 188Q222 188 198 191Q193 181 193 169Q193 163 196 158T210 148T238 138T285
126Q334 115 367 102T420 72T448 34T457 -13Q457 -61 437 -96T380 -155T291 -190T175 -202ZM215 -11Q182 -3 159 3T117 15Q97 3 86 -12T75 -44Q75 -56 80 -66T98 -84T134 -96T192 -101Q239 -101 265 -87T292 -53Q292 -37 274 -29T215 -11ZM250 276Q284 276 306
311T329 402Q329 425 320 440T284 456Q250 456 228 422T206 331Q206 308 215 292T250 276Z" />
<glyph unicode="&#x11e;" glyph-name="Gbreve" horiz-adv-x="701" d="M334 -12Q192 -12 113 51T34 236Q34 351 78 449T209 617Q263 662 334 683T490 705Q561 705 613 694T694 669L666 469H545L534 563Q522 571 507 575T463 579Q424 579 392 563T334 517Q315 494
298 460T267 387T245 307T237 230Q237 164 266 137T349 110Q366 110 380 113T406 121L434 231L377 247L401 344H704L679 247L624 231L573 26Q530 12 468 0T334 -12ZM486 725Q448 725 420 736T375 767T349 812T343 866H447Q448 850 459 841T494 831Q516 831 532
840T555 866H660Q646 804 603 765T486 725Z" />
<glyph unicode="&#x11f;" glyph-name="gbreve" horiz-adv-x="508" d="M175 -202Q107 -202 57 -193T-25 -167T-73 -128T-89 -79Q-89 -36 -49 -4T55 49Q51 61 51 75Q51 97 58 116T76 152T101 183T129 211Q92 228 70 259T48 338Q48 395 71 434T131 498T209 534T290
545Q348 545 387 529L577 549L547 443L468 455Q476 442 481 427T487 392Q487 337 464 298T405 235T327 199T247 188Q222 188 198 191Q193 181 193 169Q193 163 196 158T210 148T238 138T285 126Q334 115 367 102T420 72T448 34T457 -13Q457 -61 437 -96T380 -155T291
-190T175 -202ZM215 -11Q182 -3 159 3T117 15Q97 3 86 -12T75 -44Q75 -56 80 -66T98 -84T134 -96T192 -101Q239 -101 265 -87T292 -53Q292 -37 274 -29T215 -11ZM250 276Q284 276 306 311T329 402Q329 425 320 440T284 456Q250 456 228 422T206 331Q206 308 215
292T250 276ZM598 585Q560 585 532 597T487 629T462 677T457 734H561Q561 716 573 706T608 695Q630 695 646 705T669 734H774Q767 702 753 675T716 628T664 597T598 585Z" />
<glyph unicode="&#x120;" glyph-name="Gdotaccent" horiz-adv-x="701" d="M334 -12Q192 -12 113 51T34 236Q34 351 78 449T209 617Q263 662 334 683T490 705Q561 705 613 694T694 669L666 469H545L534 563Q522 571 507 575T463 579Q424 579 392 563T334 517Q315
494 298 460T267 387T245 307T237 230Q237 164 266 137T349 110Q366 110 380 113T406 121L434 231L377 247L401 344H704L679 247L624 231L573 26Q530 12 468 0T334 -12ZM492 727Q451 727 426 748T400 806Q400 828 409 845T432 875T465 893T504 900Q545 900 570
879T596 821Q596 798 588 781T565 751T531 733T492 727Z" />
<glyph unicode="&#x121;" glyph-name="gdotaccent" horiz-adv-x="508" d="M587 584Q546 584 521 605T495 663Q495 685 504 702T527 732T560 750T599 757Q641 757 666 736T691 678Q691 655 683 638T660 608T626 590T587 584ZM175 -202Q107 -202 57 -193T-25 -167T-73
-128T-89 -79Q-89 -36 -49 -4T55 49Q51 61 51 75Q51 97 58 116T76 152T101 183T129 211Q92 228 70 259T48 338Q48 395 71 434T131 498T209 534T290 545Q348 545 387 529L577 549L547 443L468 455Q476 442 481 427T487 392Q487 337 464 298T405 235T327 199T247
188Q222 188 198 191Q193 181 193 169Q193 163 196 158T210 148T238 138T285 126Q334 115 367 102T420 72T448 34T457 -13Q457 -61 437 -96T380 -155T291 -190T175 -202ZM215 -11Q182 -3 159 3T117 15Q97 3 86 -12T75 -44Q75 -56 80 -66T98 -84T134 -96T192 -101Q239
-101 265 -87T292 -53Q292 -37 274 -29T215 -11ZM250 276Q284 276 306 311T329 402Q329 425 320 440T284 456Q250 456 228 422T206 331Q206 308 215 292T250 276Z" />
<glyph unicode="&#x122;" glyph-name="Gcommaaccent" horiz-adv-x="701" d="M334 -12Q192 -12 113 51T34 236Q34 351 78 449T209 617Q263 662 334 683T490 705Q561 705 613 694T694 669L666 469H545L534 563Q522 571 507 575T463 579Q424 579 392 563T334 517Q315
494 298 460T267 387T245 307T237 230Q237 164 266 137T349 110Q366 110 380 113T406 121L434 231L377 247L401 344H704L679 247L624 231L573 26Q530 12 468 0T334 -12ZM377 -36Q364 -78 343 -118T292 -189H163Q177 -155 188 -119T208 -36H377Z" />
<glyph unicode="&#x123;" glyph-name="gcommaaccent" horiz-adv-x="508" d="M175 -202Q107 -202 57 -193T-25 -167T-73 -128T-89 -79Q-89 -36 -49 -4T55 49Q51 61 51 75Q51 97 58 116T76 152T101 183T129 211Q92 228 70 259T48 338Q48 395 71 434T131 498T209
534T290 545Q348 545 387 529L577 549L547 443L468 455Q476 442 481 427T487 392Q487 337 464 298T405 235T327 199T247 188Q222 188 198 191Q193 181 193 169Q193 163 196 158T210 148T238 138T285 126Q334 115 367 102T420 72T448 34T457 -13Q457 -61 437 -96T380
-155T291 -190T175 -202ZM215 -11Q182 -3 159 3T117 15Q97 3 86 -12T75 -44Q75 -56 80 -66T98 -84T134 -96T192 -101Q239 -101 265 -87T292 -53Q292 -37 274 -29T215 -11ZM250 276Q284 276 306 311T329 402Q329 425 320 440T284 456Q250 456 228 422T206 331Q206
308 215 292T250 276ZM237 593Q251 635 272 675T322 746H439Q425 712 414 675T394 593H237Z" />
<glyph unicode="&#x124;" glyph-name="Hcircumflex" horiz-adv-x="760" d="M-20 97L53 114L169 579L104 596L129 693H455L431 596L372 580L330 410H513L555 580L504 596L529 693H855L830 596L758 579L642 114L706 97L682 0H356L380 97L439 113L486 300H302L255
113L306 97L282 0H-44L-20 97ZM345 774L491 891H577L666 768L623 723L517 775L377 723L345 774Z" />
<glyph unicode="&#x125;" glyph-name="hcircumflex" horiz-adv-x="598" d="M324 -13Q289 -13 266 3T243 45Q243 65 254 81T273 106L342 94Q358 136 371 175T394 249T409 312T414 359Q414 383 405 393T375 403Q351 403 324 382T267 330L168 0H-10L171 610L106 617L134
714L375 752L390 743L298 439H304Q348 487 394 516T494 546Q546 546 573 511T600 412Q600 373 592 329T568 239T532 150T485 69Q453 23 413 5T324 -13ZM287 819L433 936H519L608 813L565 768L459 820L319 768L287 819Z" />
<glyph unicode="&#x126;" glyph-name="Hbar" horiz-adv-x="760" d="M83 527H156L169 579L104 596L129 693H455L431 596L372 580L359 527H542L555 580L504 596L529 693H855L830 596L758 579L745 527H819L802 459H728L642 114L706 97L682 0H356L380 97L439 113L486
300H302L255 113L306 97L282 0H-44L-20 97L53 114L139 459H65L83 527ZM511 398L525 459H342L327 398H511Z" />
<glyph unicode="&#x127;" glyph-name="hbar" horiz-adv-x="598" d="M105 622H174L180 642L115 649L134 714L375 752L390 743L353 622H475L463 574H339L298 439H304Q348 487 394 516T494 546Q546 546 573 511T600 412Q600 373 592 329T568 239T532 150T485 69Q453
23 413 5T324 -13Q289 -13 266 3T243 45Q243 65 254 81T273 106L342 94Q358 136 371 175T394 249T409 312T414 359Q414 383 405 393T375 403Q351 403 324 382T267 330L168 0H-10L160 574H93L105 622Z" />
<glyph unicode="&#x128;" glyph-name="Itilde" horiz-adv-x="376" d="M-20 97L55 114L171 579L104 596L129 693H472L447 596L373 579L257 114L323 97L299 0H-44L-20 97ZM393 776Q421 821 457 850T535 879Q552 879 567 875T595 864T619 854T643 849Q674 849 703
882L764 836Q736 791 700 762T621 733Q604 733 590 738T562 748T537 759T514 764Q481 764 454 730L393 776Z" />
<glyph unicode="&#x129;" glyph-name="itilde" horiz-adv-x="326" d="M91 -12Q71 -12 54 -8T26 7T12 35T17 78L122 425H49L74 516L321 545L335 537L202 98H287L260 19Q231 6 186 -3T91 -12ZM322 631Q350 676 386 704T464 733Q481 733 496 729T524 718T548 708T572
703Q603 703 632 736L693 690Q665 645 629 617T550 588Q533 588 519 592T491 603T466 613T443 618Q410 618 383 585L322 631Z" />
<glyph unicode="&#x12a;" glyph-name="Imacron" horiz-adv-x="376" d="M447 846H736L709 736H420L447 846ZM-20 97L55 114L171 579L104 596L129 693H472L447 596L373 579L257 114L323 97L299 0H-44L-20 97Z" />
<glyph unicode="&#x12b;" glyph-name="imacron" horiz-adv-x="326" d="M91 -12Q71 -12 54 -8T26 7T12 35T17 78L122 425H49L74 516L321 545L335 537L202 98H287L260 19Q231 6 186 -3T91 -12ZM121 706H395L368 596H94L121 706Z" />
<glyph unicode="&#x12c;" glyph-name="Ibreve" horiz-adv-x="376" d="M567 725Q529 725 501 736T456 767T430 812T424 866H528Q529 850 540 841T575 831Q597 831 613 840T636 866H741Q727 804 684 765T567 725ZM-20 97L55 114L171 579L104 596L129 693H472L447
596L373 579L257 114L323 97L299 0H-44L-20 97Z" />
<glyph unicode="&#x12d;" glyph-name="ibreve" horiz-adv-x="326" d="M91 -12Q71 -12 54 -8T26 7T12 35T17 78L122 425H49L74 516L321 545L335 537L202 98H287L260 19Q231 6 186 -3T91 -12ZM503 585Q465 585 437 597T392 629T367 677T362 734H466Q466 716 478
706T513 695Q535 695 551 705T574 734H679Q672 702 658 675T621 628T569 597T503 585Z" />
<glyph unicode="&#x12e;" glyph-name="Iogonek" horiz-adv-x="376" d="M-20 97L55 114L171 579L104 596L129 693H472L447 596L373 579L257 114L323 97L299 0H225Q214 -9 203 -18T182 -39T166 -63T159 -89Q159 -103 168 -109T193 -115Q201 -115 207 -114T220 -112L203
-182Q187 -189 166 -193T122 -197Q65 -197 36 -176T8 -119Q8 -97 18 -79T45 -45T83 -19T125 0H-44L-20 97Z" />
<glyph unicode="&#x12f;" glyph-name="iogonek" horiz-adv-x="326" d="M98 -197Q41 -197 13 -176T-16 -119Q-16 -100 -8 -84T13 -55T44 -31T80 -11Q64 -10 49 -5T25 10T12 36T17 78L122 425H49L74 516L321 545L335 537L202 98H287L260 19Q231 9 210 0T169 -29Q158
-39 147 -54T136 -89Q136 -103 145 -109T169 -115Q177 -115 183 -114T196 -112L179 -182Q164 -189 143 -193T98 -197ZM255 584Q215 584 190 605T164 663Q164 685 173 702T196 732T229 750T268 757Q309 757 334 736T360 678Q360 655 351 638T328 608T294 590T255
584Z" />
<glyph unicode="&#x130;" glyph-name="Idotaccent" horiz-adv-x="376" d="M-20 97L55 114L171 579L104 596L129 693H472L447 596L373 579L257 114L323 97L299 0H-44L-20 97ZM572 727Q531 727 506 748T480 806Q480 828 489 845T512 875T545 893T584 900Q625 900
650 879T676 821Q676 798 668 781T645 751T611 733T572 727Z" />
<glyph unicode="&#x131;" glyph-name="dotlessi" horiz-adv-x="326" d="M91 -12Q71 -12 54 -8T26 7T12 35T17 78L122 425H49L74 516L321 545L335 537L202 98H287L260 19Q231 6 186 -3T91 -12Z" />
<glyph unicode="&#x132;" glyph-name="IJ" horiz-adv-x="873" d="M518 -11Q426 -11 385 19T344 95Q344 124 359 148T394 183H496L479 91H483Q498 91 512 95T538 112T562 151T584 218L673 579L609 596L633 693H971L946 596L877 579L784 208Q768 143 739 101T674
34T598 -1T518 -11ZM-20 97L55 114L171 579L104 596L129 693H472L447 596L373 579L257 114L323 97L299 0H-44L-20 97Z" />
<glyph unicode="&#x133;" glyph-name="ij" horiz-adv-x="630" d="M91 -12Q71 -12 54 -8T26 7T12 35T17 78L122 425H49L74 516L321 545L335 537L202 98H287L260 19Q231 6 186 -3T91 -12ZM255 584Q215 584 190 605T164 663Q164 685 173 702T196 732T229 750T268
757Q309 757 334 736T360 678Q360 655 351 638T328 608T294 590T255 584ZM223 -109H227Q240 -109 252 -106T277 -90T299 -56T321 5L440 425H367L392 516L639 545L653 537L512 48Q493 -19 464 -66T398 -142T319 -185T232 -199Q172 -199 141 -176T109 -115Q109 -91
121 -73T148 -43H235L223 -109ZM573 584Q533 584 508 605T482 663Q482 685 491 702T514 732T547 750T586 757Q627 757 652 736T678 678Q678 655 669 638T646 608T612 590T573 584Z" />
<glyph unicode="&#x134;" glyph-name="Jcircumflex" horiz-adv-x="507" d="M105 91H109Q126 91 141 95T170 112T195 151T218 218L307 579L243 596L267 693H605L580 596L511 579L418 208Q402 143 373 101T308 34T230 -1T146 -11Q97 -11 64 -3T9 19T-21 52T-31 95Q-31
124 -15 148T20 183H122L105 91ZM283 774L429 891H515L604 768L561 723L455 775L315 723L283 774Z" />
<glyph unicode="&#x135;" glyph-name="jcircumflex" horiz-adv-x="311" d="M-95 -109H-91Q-78 -109 -66 -106T-41 -90T-19 -56T3 5L122 425H49L74 516L321 545L335 537L194 48Q175 -19 146 -66T80 -142T1 -185T-86 -199Q-146 -199 -177 -176T-209 -115Q-209 -91
-197 -73T-170 -43H-83L-95 -109ZM340 627L490 760H576L661 620L617 575L512 641L372 575L340 627Z" />
<glyph unicode="&#x136;" glyph-name="Kcommaaccent" horiz-adv-x="727" d="M344 269L284 231L255 113L312 97L287 0H-44L-20 97L53 114L169 579L104 596L129 693H456L432 596L372 580L320 375L547 581L501 596L526 693H807L782 596L723 577L506 394L621 113L677
97L652 0H448L344 269ZM406 -36Q393 -78 372 -118T321 -189H192Q206 -155 217 -119T237 -36H406Z" />
<glyph unicode="&#x137;" glyph-name="kcommaaccent" horiz-adv-x="582" d="M533 425Q508 409 478 379T416 310L480 98H554L527 19Q507 8 478 -2T406 -13Q366 -13 343 9T306 82L266 239L285 302Q334 374 369 421T432 495T488 534T549 546Q579 546 597 535T627
511L603 425H533ZM171 610L106 617L134 714L374 752L389 743L168 0H-10L171 610ZM322 -36Q309 -78 288 -118T237 -189H108Q122 -155 133 -119T153 -36H322Z" />
<glyph unicode="&#x139;" glyph-name="Lacute" horiz-adv-x="594" d="M-20 97L53 114L169 579L104 596L129 693H476L452 596L372 580L256 114H392L472 258H588L516 0H-44L-20 97ZM463 801L698 903L727 774L479 723L463 801Z" />
<glyph unicode="&#x13a;" glyph-name="lacute" horiz-adv-x="327" d="M91 -12Q71 -12 54 -8T27 7T13 35T17 78L171 610L103 617L131 714L375 752L390 743L202 98H288L261 19Q232 6 186 -3T91 -12ZM449 844L684 946L713 817L465 766L449 844Z" />
<glyph unicode="&#x13b;" glyph-name="Lcommaaccent" horiz-adv-x="594" d="M-20 97L53 114L169 579L104 596L129 693H476L452 596L372 580L256 114H392L472 258H588L516 0H-44L-20 97ZM332 -36Q319 -78 298 -118T247 -189H118Q132 -155 143 -119T163 -36H332Z" />
<glyph unicode="&#x13c;" glyph-name="lcommaaccent" horiz-adv-x="327" d="M91 -12Q71 -12 54 -8T27 7T13 35T17 78L171 610L103 617L131 714L375 752L390 743L202 98H288L261 19Q232 6 186 -3T91 -12ZM179 -36Q166 -78 145 -118T94 -189H-35Q-21 -155 -10 -119T10
-36H179Z" />
<glyph unicode="&#x13d;" glyph-name="Lcaron" horiz-adv-x="605" d="M540 719L677 695L570 521L481 539L540 719ZM-20 97L53 114L169 579L104 596L129 693H476L452 596L372 580L256 114H392L472 258H588L516 0H-44L-20 97Z" />
<glyph unicode="&#x13e;" glyph-name="lcaron" horiz-adv-x="327" d="M91 -12Q71 -12 54 -8T27 7T13 35T17 78L171 610L103 617L131 714L375 752L390 743L202 98H288L261 19Q232 6 186 -3T91 -12ZM374 573L434 750L569 727L461 556L374 573Z" />
<glyph unicode="&#x13f;" glyph-name="Ldot" horiz-adv-x="594" d="M-20 97L53 114L169 579L104 596L129 693H476L452 596L372 580L256 114H392L470 248H586L516 0H-44L-20 97ZM538 303Q498 303 476 326T454 380Q454 421 481 448T548 475Q588 475 609 451T631
398Q631 355 604 329T538 303Z" />
<glyph unicode="&#x140;" glyph-name="ldot" horiz-adv-x="414" d="M392 285Q431 285 457 311T483 380Q483 407 462 430T402 453Q364 453 337 428T310 361Q310 332 332 309T392 285ZM91 -12Q71 -12 54 -8T27 7T13 35T17 78L171 610L103 617L131 714L375 752L390
743L202 98H288L261 19Q232 6 186 -3T91 -12Z" />
<glyph unicode="&#x141;" glyph-name="Lslash" horiz-adv-x="594" d="M37 327L112 350L169 579L104 596L129 693H476L452 596L372 580L331 415L492 465L463 347L302 297L256 114H392L472 258H588L516 0H-44L-20 97L53 114L82 232L8 209L37 327Z" />
<glyph unicode="&#x142;" glyph-name="lslash" horiz-adv-x="329" d="M38 367L110 399L171 610L103 617L131 714L375 752L390 743L316 491L390 524L361 413L283 378L202 98H289L262 19Q233 6 187 -3T91 -12Q71 -12 54 -8T27 7T13 35T17 78L78 287L10 256L38 367Z" />
<glyph unicode="&#x143;" glyph-name="Nacute" horiz-adv-x="726" d="M-20 97L53 114L169 579L104 596L129 693H412L524 283H529L603 578L538 596L562 693H824L800 596L735 579L591 0H411L281 479H276L185 113L252 97L228 0H-44L-20 97ZM391 801L626 903L655 774L407
723L391 801Z" />
<glyph unicode="&#x144;" glyph-name="nacute" horiz-adv-x="625" d="M395 -12Q350 -12 328 9T321 78L404 340Q412 364 412 377Q412 399 391 399Q376 399 360 392T327 372T294 342T263 307L168 0H-10L117 425H49L74 516L296 545L310 537L276 413H281Q330 478 388
512T502 546Q521 546 540 541T574 523T598 491T607 443Q607 414 595 374L507 98H586L559 19Q530 6 484 -3T395 -12ZM277 652L505 772L542 645L299 576L277 652Z" />
<glyph unicode="&#x145;" glyph-name="Ncommaaccent" horiz-adv-x="726" d="M-20 97L53 114L169 579L104 596L129 693H412L524 283H529L603 578L538 596L562 693H824L800 596L735 579L591 0H411L281 479H276L185 113L252 97L228 0H-44L-20 97ZM396 -36Q383 -78
362 -118T311 -189H182Q196 -155 207 -119T227 -36H396Z" />
<glyph unicode="&#x146;" glyph-name="ncommaaccent" horiz-adv-x="625" d="M395 -12Q350 -12 328 9T321 78L404 340Q412 364 412 377Q412 399 391 399Q376 399 360 392T327 372T294 342T263 307L168 0H-10L117 425H49L74 516L296 545L310 537L276 413H281Q330
478 388 512T502 546Q521 546 540 541T574 523T598 491T607 443Q607 414 595 374L507 98H586L559 19Q530 6 484 -3T395 -12ZM329 -36Q316 -78 295 -118T244 -189H115Q129 -155 140 -119T160 -36H329Z" />
<glyph unicode="&#x147;" glyph-name="Ncaron" horiz-adv-x="726" d="M-20 97L53 114L169 579L104 596L129 693H412L524 283H529L603 578L538 596L562 693H824L800 596L735 579L591 0H411L281 479H276L185 113L252 97L228 0H-44L-20 97ZM688 843L542 726H456L367
850L411 895L517 843L657 895L688 843Z" />
<glyph unicode="&#x148;" glyph-name="ncaron" horiz-adv-x="625" d="M395 -12Q350 -12 328 9T321 78L404 340Q412 364 412 377Q412 399 391 399Q376 399 360 392T327 372T294 342T263 307L168 0H-10L117 425H49L74 516L296 545L310 537L276 413H281Q330 478 388
512T502 546Q521 546 540 541T574 523T598 491T607 443Q607 414 595 374L507 98H586L559 19Q530 6 484 -3T395 -12ZM265 721L309 766L414 701L554 766L585 715L436 582H350L265 721Z" />
<glyph unicode="&#x149;" glyph-name="napostrophe" horiz-adv-x="736" d="M505 -12Q460 -12 438 9T431 78L514 340Q522 364 522 377Q522 399 501 399Q486 399 470 392T437 372T404 342T373 307L278 0H100L227 425H159L184 516L406 545L420 537L386 413H391Q440
478 498 512T612 546Q631 546 650 541T684 523T708 491T717 443Q717 414 705 374L617 98H696L669 19Q640 6 594 -3T505 -12ZM258 469Q280 522 295 574T324 693H493Q479 632 449 575T376 469H258V469Z" />
<glyph unicode="&#x14a;" glyph-name="Eng" horiz-adv-x="726" d="M359 -94H362Q390 -94 406 -80T433 -35L281 479H276L185 113L252 97L228 0H-44L-20 97L53 114L169 579L104 596L129 693H412L526 290H531L603 578L538 596L562 693H824L800 596L735 579L606 60Q588
-10 565 -56T512 -131T447 -171T372 -183Q309 -183 276 -159T242 -97Q242 -72 254 -54T281 -25H371L359 -94Z" />
<glyph unicode="&#x14b;" glyph-name="eng" horiz-adv-x="598" d="M252 -200Q210 -200 186 -185T161 -142Q161 -122 172 -106T192 -82L270 -93Q292 -50 316 14T360 145T394 272T408 369Q408 400 381 400Q358 400 327 376T268 321L168 0H-10L117 425H49L74 516L296
546L310 537L276 413H281Q330 476 383 511T490 546Q541 546 568 512T595 411Q595 339 575 260T526 107T464 -26T405 -118Q370 -162 334 -181T252 -200Z" />
<glyph unicode="&#x14c;" glyph-name="Omacron" horiz-adv-x="705" d="M322 110Q356 110 382 127T430 176Q449 205 465 242T492 319T510 400T517 481Q517 534 495 558T434 583Q401 583 374 565T326 515Q307 486 291 450T263 374T245 292T238 210Q238 157 259 134T322
110ZM298 -13Q241 -13 192 3T108 52T53 131T33 238Q33 334 65 419T153 567T286 668T454 705Q514 705 564 688T649 639T703 560T723 453Q723 357 691 273T603 125T468 24T298 -13ZM346 846H635L608 736H319L346 846Z" />
<glyph unicode="&#x14d;" glyph-name="omacron" horiz-adv-x="585" d="M255 94Q291 94 316 124T358 196T382 283T390 360Q390 394 378 416T337 439Q313 439 294 425T259 389T233 337T215 279T204 221T200 173Q200 138 213 116T255 94ZM236 -13Q131 -13 72 42T13
195Q13 227 21 266T48 344T93 419T159 484T246 529T355 546Q410 546 451 531T521 488T564 422T579 338Q579 306 571 267T544 189T499 114T433 49T346 4T236 -13ZM253 706H532L505 596H226L253 706Z" />
<glyph unicode="&#x14e;" glyph-name="Obreve" horiz-adv-x="705" d="M322 110Q356 110 382 127T430 176Q449 205 465 242T492 319T510 400T517 481Q517 534 495 558T434 583Q401 583 374 565T326 515Q307 486 291 450T263 374T245 292T238 210Q238 157 259 134T322
110ZM298 -13Q241 -13 192 3T108 52T53 131T33 238Q33 334 65 419T153 567T286 668T454 705Q514 705 564 688T649 639T703 560T723 453Q723 357 691 273T603 125T468 24T298 -13ZM465 725Q427 725 399 736T354 767T328 812T322 866H426Q427 850 438 841T473 831Q495
831 511 840T534 866H639Q625 804 582 765T465 725Z" />
<glyph unicode="&#x14f;" glyph-name="obreve" horiz-adv-x="585" d="M377 585Q339 585 311 597T266 629T241 677T236 734H340Q340 716 352 706T387 695Q409 695 425 705T448 734H553Q546 702 532 675T495 628T443 597T377 585ZM255 94Q291 94 316 124T358 196T382
283T390 360Q390 394 378 416T337 439Q313 439 294 425T259 389T233 337T215 279T204 221T200 173Q200 138 213 116T255 94ZM236 -13Q131 -13 72 42T13 195Q13 227 21 266T48 344T93 419T159 484T246 529T355 546Q410 546 451 531T521 488T564 422T579 338Q579
306 571 267T544 189T499 114T433 49T346 4T236 -13Z" />
<glyph unicode="&#x150;" glyph-name="Ohungarumlaut" horiz-adv-x="705" d="M321 763L418 921L526 850L384 722L321 763ZM505 768L615 922L717 841L565 722L505 768ZM322 110Q356 110 382 127T430 176Q449 205 465 242T492 319T510 400T517 481Q517 534 495 558T434
583Q401 583 374 565T326 515Q307 486 291 450T263 374T245 292T238 210Q238 157 259 134T322 110ZM298 -13Q241 -13 192 3T108 52T53 131T33 238Q33 334 65 419T153 567T286 668T454 705Q514 705 564 688T649 639T703 560T723 453Q723 357 691 273T603 125T468
24T298 -13Z" />
<glyph unicode="&#x151;" glyph-name="ohungarumlaut" horiz-adv-x="585" d="M211 613L334 788L436 706L264 570L211 613ZM408 619L544 788L639 697L459 571L408 619ZM255 94Q291 94 316 124T358 196T382 283T390 360Q390 394 378 416T337 439Q313 439 294 425T259
389T233 337T215 279T204 221T200 173Q200 138 213 116T255 94ZM236 -13Q131 -13 72 42T13 195Q13 227 21 266T48 344T93 419T159 484T246 529T355 546Q410 546 451 531T521 488T564 422T579 338Q579 306 571 267T544 189T499 114T433 49T346 4T236 -13Z" />
<glyph unicode="&#x152;" glyph-name="OE" horiz-adv-x="962" d="M986 483H876L864 582H710L666 406H718L749 471H838L783 234H699L694 301H639L592 111H762L832 233H945L882 0H320Q186 0 110 59T33 243Q33 332 61 413T142 557T272 656T448 693H1016L986 483ZM450
576Q409 576 379 563T321 515Q304 495 289 461T262 388T244 308T237 233Q237 168 267 143T353 117H394L509 576H450Z" />
<glyph unicode="&#x153;" glyph-name="oe" horiz-adv-x="875" d="M236 -13Q131 -13 72 42T13 195Q13 227 21 266T47 344T92 419T156 484T240 529T346 546Q411 546 453 523T517 457Q559 499 611 522T723 546Q761 546 793 538T850 514T887 474T901 417Q901 376 883
343T823 283T714 238T551 210V203Q551 160 572 136T647 111Q685 111 729 121T813 149L790 53Q755 26 705 7T595 -13Q533 -13 493 8T431 68Q395 32 346 10T236 -13ZM255 94Q291 94 316 124T358 196T382 283T390 360Q390 394 378 416T337 439Q313 439 294 425T259
389T233 337T215 279T204 221T200 173Q200 138 213 116T255 94ZM696 444Q677 444 658 432T622 400T589 352T565 294Q611 300 642 311T692 339T719 373T727 413Q727 444 696 444Z" />
<glyph unicode="&#x154;" glyph-name="Racute" horiz-adv-x="698" d="M330 801L565 903L594 774L346 723L330 801ZM-20 97L54 114L170 578L106 596L130 693H455Q520 693 566 680T641 645T684 591T698 524Q698 445 655 396T534 324V320L606 111L654 97L629 0H431L349
276H298L257 112L311 97L287 0H-44L-20 97ZM387 381Q414 381 434 391T466 419T485 460T492 509Q492 543 474 560T412 577H373L324 381H387Z" />
<glyph unicode="&#x155;" glyph-name="racute" horiz-adv-x="500" d="M117 425H49L74 516L296 545L310 537L274 405H279Q317 467 365 506T463 546Q504 546 522 526T541 474Q541 439 524 406T485 350H383L392 408Q360 400 324 365T256 285L168 0H-10L117 425ZM220
652L448 772L485 645L242 576L220 652Z" />
<glyph unicode="&#x156;" glyph-name="Rcommaaccent" horiz-adv-x="698" d="M-20 97L54 114L170 578L106 596L130 693H455Q520 693 566 680T641 645T684 591T698 524Q698 445 655 396T534 324V320L606 111L654 97L629 0H431L349 276H298L257 112L311 97L287 0H-44L-20
97ZM387 381Q414 381 434 391T466 419T485 460T492 509Q492 543 474 560T412 577H373L324 381H387ZM394 -36Q381 -78 360 -118T309 -189H180Q194 -155 205 -119T225 -36H394Z" />
<glyph unicode="&#x157;" glyph-name="rcommaaccent" horiz-adv-x="500" d="M117 425H49L74 516L296 545L310 537L274 405H279Q317 467 365 506T463 546Q504 546 522 526T541 474Q541 439 524 406T485 350H383L392 408Q360 400 324 365T256 285L168 0H-10L117
425ZM148 -36Q135 -78 114 -118T63 -189H-66Q-52 -155 -41 -119T-21 -36H148Z" />
<glyph unicode="&#x158;" glyph-name="Rcaron" horiz-adv-x="698" d="M-20 97L54 114L170 578L106 596L130 693H455Q520 693 566 680T641 645T684 591T698 524Q698 445 655 396T534 324V320L606 111L654 97L629 0H431L349 276H298L257 112L311 97L287 0H-44L-20
97ZM387 381Q414 381 434 391T466 419T485 460T492 509Q492 543 474 560T412 577H373L324 381H387ZM628 843L482 726H396L307 850L351 895L457 843L597 895L628 843Z" />
<glyph unicode="&#x159;" glyph-name="rcaron" horiz-adv-x="500" d="M209 721L253 766L358 701L498 766L529 715L380 582H294L209 721ZM117 425H49L74 516L296 545L310 537L274 405H279Q317 467 365 506T463 546Q504 546 522 526T541 474Q541 439 524 406T485
350H383L392 408Q360 400 324 365T256 285L168 0H-10L117 425Z" />
<glyph unicode="&#x15a;" glyph-name="Sacute" horiz-adv-x="545" d="M209 -10Q131 -10 72 4T-21 36L14 209H137L143 129Q157 121 172 116T216 110Q266 110 291 130T317 189Q317 216 297 235T235 277L203 295Q177 309 156 325T119 363T94 410T85 470Q85 515 101
557T151 631T241 684T375 704Q416 704 447 701T503 693T545 682T579 668L556 507H436L429 570Q418 577 404 582T362 587Q317 587 296 567T274 518Q274 493 292 476T350 436L382 418Q410 402 435 386T478 349T508 302T519 242Q519 188 499 142T438 62T341 9T209
-10ZM268 801L503 903L532 774L284 723L268 801Z" />
<glyph unicode="&#x15b;" glyph-name="sacute" horiz-adv-x="449" d="M168 -13Q131 -13 97 -7T37 13T-4 45T-20 90Q-20 120 -5 139T23 167H133L118 101Q126 96 139 93T172 89Q212 89 229 102T247 139Q247 161 231 176T174 211Q125 236 94 269T62 360Q62 399 79
432T128 491T203 531T299 546Q336 546 367 540T422 522T458 492T471 451Q471 428 459 409T433 375H327L339 435Q330 440 318 443T290 447Q256 447 241 433T225 396Q225 385 229 377T243 361T271 343T315 319Q361 295 388 266T416 183Q416 136 397 100T345 38T266
0T168 -13ZM442 652L670 772L707 645L464 576L442 652Z" />
<glyph unicode="&#x15c;" glyph-name="Scircumflex" horiz-adv-x="545" d="M222 774L368 891H454L543 768L500 723L394 775L254 723L222 774ZM209 -10Q131 -10 72 4T-21 36L14 209H137L143 129Q157 121 172 116T216 110Q266 110 291 130T317 189Q317 216 297 235T235
277L203 295Q177 309 156 325T119 363T94 410T85 470Q85 515 101 557T151 631T241 684T375 704Q416 704 447 701T503 693T545 682T579 668L556 507H436L429 570Q418 577 404 582T362 587Q317 587 296 567T274 518Q274 493 292 476T350 436L382 418Q410 402 435
386T478 349T508 302T519 242Q519 188 499 142T438 62T341 9T209 -10Z" />
<glyph unicode="&#x15d;" glyph-name="scircumflex" horiz-adv-x="449" d="M168 -13Q131 -13 97 -7T37 13T-4 45T-20 90Q-20 120 -5 139T23 167H133L118 101Q126 96 139 93T172 89Q212 89 229 102T247 139Q247 161 231 176T174 211Q125 236 94 269T62 360Q62 399
79 432T128 491T203 531T299 546Q336 546 367 540T422 522T458 492T471 451Q471 428 459 409T433 375H327L339 435Q330 440 318 443T290 447Q256 447 241 433T225 396Q225 385 229 377T243 361T271 343T315 319Q361 295 388 266T416 183Q416 136 397 100T345 38T266
0T168 -13ZM407 627L557 760H643L728 620L684 575L579 641L439 575L407 627Z" />
<glyph unicode="&#x15e;" glyph-name="Scedilla" horiz-adv-x="545" d="M84 -165Q142 -160 167 -151T193 -122Q193 -110 180 -103T126 -93L147 -7Q91 -2 48 10T-21 36L14 209H137L143 129Q157 121 172 116T216 110Q266 110 291 130T317 189Q317 216 297 235T235
277L203 295Q177 309 156 325T119 363T94 410T85 470Q85 515 101 557T151 631T241 684T375 704Q416 704 447 701T503 693T545 682T579 668L556 507H436L429 570Q418 577 404 582T362 587Q317 587 296 567T274 518Q274 493 292 476T350 436L382 418Q410 402 435
386T478 349T508 302T519 242Q519 189 499 144T440 64T345 11T216 -10L209 -40Q266 -43 290 -61T314 -108Q314 -162 256 -189T69 -221L84 -165Z" />
<glyph unicode="&#x15f;" glyph-name="scedilla" horiz-adv-x="449" d="M43 -165Q101 -160 126 -151T152 -122Q152 -110 139 -103T85 -93L106 -8Q53 1 17 25T-20 90Q-20 120 -5 139T23 167H133L118 101Q126 96 139 93T172 89Q212 89 229 102T247 139Q247 161 231
176T174 211Q125 236 94 269T62 360Q62 399 79 432T128 491T203 531T299 546Q336 546 367 540T422 522T458 492T471 451Q471 428 459 409T433 375H327L339 435Q330 440 318 443T290 447Q256 447 241 433T225 396Q225 385 229 377T243 361T271 343T315 319Q361 295
388 266T416 183Q416 137 398 101T346 40T269 2T174 -13L168 -40Q225 -43 249 -61T273 -108Q273 -162 215 -189T28 -221L43 -165Z" />
<glyph unicode="&#x160;" glyph-name="Scaron" horiz-adv-x="545" d="M566 843L420 726H334L245 850L289 895L395 843L535 895L566 843ZM209 -10Q131 -10 72 4T-21 36L14 209H137L143 129Q157 121 172 116T216 110Q266 110 291 130T317 189Q317 216 297 235T235
277L203 295Q177 309 156 325T119 363T94 410T85 470Q85 515 101 557T151 631T241 684T375 704Q416 704 447 701T503 693T545 682T579 668L556 507H436L429 570Q418 577 404 582T362 587Q317 587 296 567T274 518Q274 493 292 476T350 436L382 418Q410 402 435
386T478 349T508 302T519 242Q519 188 499 142T438 62T341 9T209 -10Z" />
<glyph unicode="&#x161;" glyph-name="scaron" horiz-adv-x="449" d="M432 721L476 766L581 701L721 766L752 715L603 582H517L432 721ZM168 -13Q131 -13 97 -7T37 13T-4 45T-20 90Q-20 120 -5 139T23 167H133L118 101Q126 96 139 93T172 89Q212 89 229 102T247
139Q247 161 231 176T174 211Q125 236 94 269T62 360Q62 399 79 432T128 491T203 531T299 546Q336 546 367 540T422 522T458 492T471 451Q471 428 459 409T433 375H327L339 435Q330 440 318 443T290 447Q256 447 241 433T225 396Q225 385 229 377T243 361T271 343T315
319Q361 295 388 266T416 183Q416 136 397 100T345 38T266 0T168 -13Z" />
<glyph unicode="&#x162;" glyph-name="Tcommaaccent" horiz-adv-x="653" d="M118 97L196 114L312 579H242L184 458H65L131 693H741L695 458H581L579 579H515L399 114L469 97L444 0H93L118 97ZM344 -36Q331 -78 310 -118T259 -189H130Q144 -155 155 -119T175 -36H344Z" />
<glyph unicode="&#x163;" glyph-name="tcommaaccent" horiz-adv-x="364" d="M72 511L147 534L183 655H355L321 534H421L389 425H291L211 142Q205 120 210 110T240 99Q260 99 277 102T314 110L285 17Q261 6 225 -3T132 -12Q81 -12 50 8T19 75Q19 98 28 128L115
425H49L72 511ZM196 -36Q183 -78 162 -118T111 -189H-18Q-4 -155 7 -119T27 -36H196Z" />
<glyph unicode="&#x164;" glyph-name="Tcaron" horiz-adv-x="653" d="M118 97L196 114L312 579H242L184 458H65L131 693H741L695 458H581L579 579H515L399 114L469 97L444 0H93L118 97ZM626 843L480 726H394L305 850L349 895L455 843L595 895L626 843Z" />
<glyph unicode="&#x165;" glyph-name="tcaron" horiz-adv-x="364" d="M72 511L147 534L183 655H355L321 534H421L389 425H291L211 142Q205 120 210 110T240 99Q260 99 277 102T314 110L285 17Q261 6 225 -3T132 -12Q81 -12 50 8T19 75Q19 98 28 128L115 425H49L72
511ZM366 573L426 750L561 727L453 556L366 573Z" />
<glyph unicode="&#x166;" glyph-name="Tbar" horiz-adv-x="653" d="M140 400H267L312 579H242L184 458H65L131 693H741L695 458H581L579 579H515L470 400H600L577 310H448L399 114L469 97L444 0H93L118 97L196 114L245 310H118L140 400Z" />
<glyph unicode="&#x167;" glyph-name="tbar" horiz-adv-x="364" d="M72 511L147 534L183 655H355L321 534H421L389 425H291L274 365H375L357 297H255L211 142Q205 120 210 110T240 99Q260 99 277 102T314 110L285 17Q261 6 225 -3T132 -12Q81 -12 50 8T19 75Q19
98 28 128L77 297H18L35 365H97L115 425H49L72 511Z" />
<glyph unicode="&#x168;" glyph-name="Utilde" horiz-adv-x="711" d="M330 776Q358 821 394 850T472 879Q489 879 504 875T532 864T556 854T580 849Q611 849 640 882L701 836Q673 791 637 762T558 733Q541 733 527 738T499 748T474 759T451 764Q418 764 391 730L330
776ZM338 -12Q205 -12 137 37T68 175Q68 205 76 242L161 579L100 596L125 693H451L427 596L364 580L279 239Q273 215 273 194Q273 148 300 127T376 105Q430 105 458 134T502 227L590 580L535 596L560 693H810L786 596L721 579L630 212Q618 164 599 123T546 52T463
5T338 -12Z" />
<glyph unicode="&#x169;" glyph-name="utilde" horiz-adv-x="621" d="M127 -13Q106 -13 87 -8T53 9T30 40T21 86Q21 119 34 159L114 425H49L74 516L312 545L326 537L222 186Q214 162 214 148Q214 125 236 125Q263 125 293 149T353 202L455 534H634L504 98H582L555
19Q527 6 482 -3T393 -12Q358 -12 344 3T332 48Q332 56 336 73T343 103H338Q290 49 236 18T127 -13ZM228 631Q256 676 292 704T370 733Q387 733 402 729T430 718T454 708T478 703Q509 703 538 736L599 690Q571 645 535 617T456 588Q439 588 425 592T397 603T372
613T349 618Q316 618 289 585L228 631Z" />
<glyph unicode="&#x16a;" glyph-name="Umacron" horiz-adv-x="711" d="M338 -12Q205 -12 137 37T68 175Q68 205 76 242L161 579L100 596L125 693H451L427 596L364 580L279 239Q273 215 273 194Q273 148 300 127T376 105Q430 105 458 134T502 227L590 580L535 596L560
693H810L786 596L721 579L630 212Q618 164 599 123T546 52T463 5T338 -12ZM380 846H669L642 736H353L380 846Z" />
<glyph unicode="&#x16b;" glyph-name="umacron" horiz-adv-x="621" d="M127 -13Q106 -13 87 -8T53 9T30 40T21 86Q21 119 34 159L114 425H49L74 516L312 545L326 537L222 186Q214 162 214 148Q214 125 236 125Q263 125 293 149T353 202L455 534H634L504 98H582L555
19Q527 6 482 -3T393 -12Q358 -12 344 3T332 48Q332 56 336 73T343 103H338Q290 49 236 18T127 -13ZM285 706H564L537 596H258L285 706Z" />
<glyph unicode="&#x16c;" glyph-name="Ubreve" horiz-adv-x="711" d="M338 -12Q205 -12 137 37T68 175Q68 205 76 242L161 579L100 596L125 693H451L427 596L364 580L279 239Q273 215 273 194Q273 148 300 127T376 105Q430 105 458 134T502 227L590 580L535 596L560
693H810L786 596L721 579L630 212Q618 164 599 123T546 52T463 5T338 -12ZM498 725Q460 725 432 736T387 767T361 812T355 866H459Q460 850 471 841T506 831Q528 831 544 840T567 866H672Q658 804 615 765T498 725Z" />
<glyph unicode="&#x16d;" glyph-name="ubreve" horiz-adv-x="621" d="M127 -13Q106 -13 87 -8T53 9T30 40T21 86Q21 119 34 159L114 425H49L74 516L312 545L326 537L222 186Q214 162 214 148Q214 125 236 125Q263 125 293 149T353 202L455 534H634L504 98H582L555
19Q527 6 482 -3T393 -12Q358 -12 344 3T332 48Q332 56 336 73T343 103H338Q290 49 236 18T127 -13ZM398 585Q360 585 332 597T287 629T262 677T257 734H361Q361 716 373 706T408 695Q430 695 446 705T469 734H574Q567 702 553 675T516 628T464 597T398 585Z" />
<glyph unicode="&#x16e;" glyph-name="Uring" horiz-adv-x="711" d="M338 -12Q205 -12 137 37T68 175Q68 205 76 242L161 579L100 596L125 693H451L427 596L364 580L279 239Q273 215 273 194Q273 148 300 127T376 105Q430 105 458 134T502 227L590 580L535 596L560
693H810L786 596L721 579L630 212Q618 164 599 123T546 52T463 5T338 -12ZM505 772Q527 772 541 786T555 826Q555 843 544 856T511 870Q489 870 476 856T462 816Q462 797 472 785T505 772ZM502 710Q477 710 457 718T422 741T399 774T391 814Q391 839 401 860T427
897T466 922T515 931Q540 931 560 923T595 900T617 868T625 828Q625 803 616 782T589 744T550 719T502 710Z" />
<glyph unicode="&#x16f;" glyph-name="uring" horiz-adv-x="621" d="M408 638Q430 638 444 652T458 692Q458 709 447 722T414 736Q392 736 379 722T365 682Q365 663 375 651T408 638ZM405 576Q354 576 324 606T294 680Q294 705 304 726T330 762T369 787T418 796Q469
796 498 766T528 694Q528 669 519 648T492 610T453 585T405 576ZM127 -13Q106 -13 87 -8T53 9T30 40T21 86Q21 119 34 159L114 425H49L74 516L312 545L326 537L222 186Q214 162 214 148Q214 125 236 125Q263 125 293 149T353 202L455 534H634L504 98H582L555 19Q527
6 482 -3T393 -12Q358 -12 344 3T332 48Q332 56 336 73T343 103H338Q290 49 236 18T127 -13Z" />
<glyph unicode="&#x170;" glyph-name="Uhungarumlaut" horiz-adv-x="711" d="M351 763L448 921L556 850L414 722L351 763ZM535 768L645 922L747 841L595 722L535 768ZM338 -12Q205 -12 137 37T68 175Q68 205 76 242L161 579L100 596L125 693H451L427 596L364 580L279
239Q273 215 273 194Q273 148 300 127T376 105Q430 105 458 134T502 227L590 580L535 596L560 693H810L786 596L721 579L630 212Q618 164 599 123T546 52T463 5T338 -12Z" />
<glyph unicode="&#x171;" glyph-name="uhungarumlaut" horiz-adv-x="621" d="M242 613L365 788L467 706L295 570L242 613ZM439 619L575 788L670 697L490 571L439 619ZM127 -13Q106 -13 87 -8T53 9T30 40T21 86Q21 119 34 159L114 425H49L74 516L312 545L326 537L222
186Q214 162 214 148Q214 125 236 125Q263 125 293 149T353 202L455 534H634L504 98H582L555 19Q527 6 482 -3T393 -12Q358 -12 344 3T332 48Q332 56 336 73T343 103H338Q290 49 236 18T127 -13Z" />
<glyph unicode="&#x172;" glyph-name="Uogonek" horiz-adv-x="711" d="M312 -197Q255 -197 226 -176T198 -119Q198 -100 206 -83T229 -53T262 -29T300 -10Q185 -4 127 44T68 175Q68 205 76 242L161 579L100 596L125 693H451L427 596L364 580L279 239Q273 215 273
194Q273 148 300 127T376 105Q430 105 458 134T502 227L590 580L535 596L560 693H810L786 596L721 579L630 212Q621 176 608 144T576 85T527 37T457 3Q437 -4 418 -12T384 -32T359 -57T349 -89Q349 -103 358 -109T383 -115Q391 -115 397 -114T410 -112L393 -182Q377
-189 356 -193T312 -197Z" />
<glyph unicode="&#x173;" glyph-name="uogonek" horiz-adv-x="621" d="M384 -197Q327 -197 298 -176T270 -119Q270 -100 278 -83T301 -53T334 -28T371 -9Q329 0 332 48Q332 56 336 73T343 103H338Q290 49 236 18T127 -13Q106 -13 87 -8T53 9T30 40T21 86Q21 119
34 159L114 425H49L74 516L312 545L326 537L222 186Q214 162 214 148Q214 125 236 125Q263 125 293 149T353 202L455 534H634L504 98H582L555 19Q524 8 501 -1T459 -25Q445 -36 434 -52T422 -89Q422 -103 431 -109T455 -115Q463 -115 469 -114T482 -112L465 -182Q450
-189 429 -193T384 -197Z" />
<glyph unicode="&#x174;" glyph-name="Wcircumflex" horiz-adv-x="981" d="M479 774L625 891H711L800 768L757 723L651 775L511 723L479 774ZM145 579L100 596L124 693H423L398 596L340 579L330 231H335L555 693H702L700 245H705L858 579L804 596L828 693H1080L1056
596L999 579L723 0H532L539 412H535L338 0H142L145 579Z" />
<glyph unicode="&#x175;" glyph-name="wcircumflex" horiz-adv-x="809" d="M328 627L478 760H564L649 620L605 575L500 641L360 575L328 627ZM84 0Q88 62 92 121T98 236T101 339T103 425H34L58 516Q93 529 128 537T198 545Q237 545 257 528T278 465Q278 389 274
317T259 170H263Q294 207 328 254T393 352L395 425H329L354 516Q389 529 415 537T477 545Q517 545 537 528T558 465Q558 387 554 316T538 170H542Q562 192 585 221T629 285T669 354T699 425H628L652 509Q679 526 707 536T771 546Q800 546 819 531T839 481Q839 446
825 405T787 321T729 233T660 146T584 67T508 0H373L387 199Q350 145 309 94T227 0H84V0Z" />
<glyph unicode="&#x176;" glyph-name="Ycircumflex" horiz-adv-x="664" d="M123 97L200 114L242 284L150 579L100 596L124 693H428L404 596L352 581L402 393H406L544 581L499 596L524 693H764L740 596L683 579L442 273L402 114L471 97L446 0H99L123 97ZM313 774L459
891H545L634 768L591 723L485 775L345 723L313 774Z" />
<glyph unicode="&#x177;" glyph-name="ycircumflex" horiz-adv-x="542" d="M7 -96Q36 -91 63 -76T114 -44Q116 29 116 99T113 231T107 343T99 425H32L57 516Q89 528 123 536T191 545Q231 545 250 531T274 479Q279 444 281 399T283 304T280 204T275 108H279Q307
147 332 190T378 276T412 357T432 425H358L382 509Q408 526 437 536T502 546Q531 546 549 530T568 473Q568 421 544 354T479 216T386 79T277 -40Q192 -118 120 -158T-22 -199Q-81 -199 -104 -176T-129 -114Q-128 -87 -114 -65T-84 -31H21L7 -96ZM194 627L344 760H430L515
620L471 575L366 641L226 575L194 627Z" />
<glyph unicode="&#x178;" glyph-name="Ydieresis" horiz-adv-x="664" d="M123 97L200 114L242 284L150 579L100 596L124 693H428L404 596L352 581L402 393H406L544 581L499 596L524 693H764L740 596L683 579L442 273L402 114L471 97L446 0H99L123 97ZM379 728Q343
728 320 748T296 801Q296 822 304 838T325 865T355 881T390 887Q428 887 450 867T473 815Q473 773 445 751T379 728ZM587 728Q551 728 528 748T504 801Q504 822 512 838T533 865T563 881T598 887Q636 887 658 867T681 815Q681 773 653 751T587 728Z" />
<glyph unicode="&#x179;" glyph-name="Zacute" horiz-adv-x="598" d="M-11 119L424 574V578H268L205 467H87L149 693H687L657 574L221 119V115H390L465 245H580L512 0H-41L-11 119ZM308 801L543 903L572 774L324 723L308 801Z" />
<glyph unicode="&#x17a;" glyph-name="zacute" horiz-adv-x="522" d="M72 -8Q22 -8 -2 11T-26 56Q-26 83 -7 105T38 150L292 361Q252 379 219 401T170 436L146 357H63Q58 365 55 375T52 397Q52 431 64 458T97 505T146 535T206 546Q260 546 314 527T420 475L457
542Q494 540 522 528T551 488Q551 462 536 442T487 394L216 173Q266 165 307 153T384 127L382 192H492Q490 151 479 115T447 50T398 5T332 -12Q304 -12 274 -4T214 18T159 45T113 72H108L72 -8V-8ZM216 652L444 772L481 645L238 576L216 652Z" />
<glyph unicode="&#x17b;" glyph-name="Zdotaccent" horiz-adv-x="598" d="M432 727Q391 727 366 748T340 806Q340 828 349 845T372 875T405 893T444 900Q485 900 510 879T536 821Q536 798 528 781T505 751T471 733T432 727ZM-11 119L424 574V578H268L205 467H87L149
693H687L657 574L221 119V115H390L465 245H580L512 0H-41L-11 119Z" />
<glyph unicode="&#x17c;" glyph-name="zdotaccent" horiz-adv-x="522" d="M347 584Q306 584 281 605T255 663Q255 685 264 702T287 732T320 750T359 757Q401 757 426 736T451 678Q451 655 443 638T420 608T386 590T347 584ZM72 -8Q22 -8 -2 11T-26 56Q-26 83 -7
105T38 150L292 361Q252 379 219 401T170 436L146 357H63Q58 365 55 375T52 397Q52 431 64 458T97 505T146 535T206 546Q260 546 314 527T420 475L457 542Q494 540 522 528T551 488Q551 462 536 442T487 394L216 173Q266 165 307 153T384 127L382 192H492Q490 151
479 115T447 50T398 5T332 -12Q304 -12 274 -4T214 18T159 45T113 72H108L72 -8V-8Z" />
<glyph unicode="&#x17d;" glyph-name="Zcaron" horiz-adv-x="598" d="M605 843L459 726H373L284 850L328 895L434 843L574 895L605 843ZM-11 119L424 574V578H268L205 467H87L149 693H687L657 574L221 119V115H390L465 245H580L512 0H-41L-11 119Z" />
<glyph unicode="&#x17e;" glyph-name="zcaron" horiz-adv-x="522" d="M461 721L505 766L610 701L750 766L781 715L632 582H546L461 721ZM72 -8Q22 -8 -2 11T-26 56Q-26 83 -7 105T38 150L292 361Q252 379 219 401T170 436L146 357H63Q58 365 55 375T52 397Q52
431 64 458T97 505T146 535T206 546Q260 546 314 527T420 475L457 542Q494 540 522 528T551 488Q551 462 536 442T487 394L216 173Q266 165 307 153T384 127L382 192H492Q490 151 479 115T447 50T398 5T332 -12Q304 -12 274 -4T214 18T159 45T113 72H108L72 -8V-8Z"
/>
<glyph unicode="&#x192;" glyph-name="florin" horiz-adv-x="437" d="M175 521Q199 619 254 659T395 700Q442 700 468 693T512 675L493 568Q482 571 472 573T446 575Q408 575 389 558T360 499L339 415H446L421 308H313L227 -34Q208 -110 158 -146T35 -183Q-3 -183
-31 -175T-69 -162L-52 -57Q-39 -61 -21 -61Q6 -61 21 -48T44 -3L121 308H48L73 415H148L175 521V521Z" />
<glyph unicode="&#x1fa;" glyph-name="Aringacute" horiz-adv-x="723" d="M-29 97L30 114L392 693H581L627 114L679 97L654 0H323L348 97L417 114L412 205H226L174 114L235 97L211 0H-54L-29 97ZM408 301L399 495H394L282 301H408ZM496 774Q518 774 532 788T546
828Q546 845 535 858T502 872Q480 872 467 858T453 818Q453 799 463 787T496 774ZM493 712Q468 712 448 720T413 743T390 776T382 816Q382 841 392 862T418 899T457 924T506 933Q531 933 551 925T586 902T608 870T616 830Q616 805 607 784T580 746T541 721T493
712ZM392 1012L627 1114L656 985L408 934L392 1012Z" />
<glyph unicode="&#x1fb;" glyph-name="aringacute" horiz-adv-x="598" d="M131 -13Q104 -13 81 -5T41 22T14 68T4 138Q4 216 33 287T110 413T221 500T350 532Q380 532 403 524T439 503H444L474 534H614L481 98H559L532 19Q503 6 458 -3T370 -12Q334 -12 321 4T309
49Q309 52 310 58T313 73Q315 82 317 92H312Q274 41 229 14T131 -13ZM228 109Q251 109 277 129T325 175L394 407Q379 428 348 428Q324 428 297 407T248 350T210 265T195 159Q195 109 228 109ZM405 891Q427 891 441 905T455 945Q455 962 444 975T411 989Q389 989
376 975T362 935Q362 916 372 904T405 891ZM402 829Q351 829 321 859T291 933Q291 958 301 979T327 1015T366 1040T415 1049Q466 1049 495 1019T525 947Q525 922 516 901T489 863T450 838T402 829ZM310 876L545 978L574 849L326 798L310 876Z" />
<glyph unicode="&#x1fc;" glyph-name="AEacute" horiz-adv-x="985" d="M-29 97L31 115L449 589L384 596L408 693H1038L1009 483H898L886 582H731L687 406H740L771 471H860L805 234H722L717 301H661L614 111H784L854 233H967L904 0H318L343 97L416 114L437 198H247L177
115L252 97L228 0H-54L-29 97ZM461 295L515 513H510L328 295H461ZM629 801L864 903L893 774L645 723L629 801Z" />
<glyph unicode="&#x1fd;" glyph-name="aeacute" horiz-adv-x="790" d="M560 111Q598 111 642 121T726 149L702 53Q668 26 615 7T491 -13Q422 -13 376 11T307 77Q272 34 226 11T135 -13Q62 -13 28 22T-7 110Q-7 153 6 184T45 238T113 273T210 293L308 305L318 342Q323
367 323 381Q323 440 262 440Q244 440 234 437T217 430L200 365H101Q89 373 79 387T69 418Q69 444 83 467T124 508T194 536T294 546Q355 546 394 528T453 478Q490 510 535 528T635 546Q673 546 706 538T763 514T800 474T814 417Q814 376 796 343T736 286T627 245T464
221V203Q464 160 484 136T560 111ZM284 178Q284 202 287 226L238 224Q166 221 166 143Q166 120 177 107T212 93Q229 93 248 102T288 132Q284 151 284 178ZM608 444Q590 444 572 433T537 404T506 360T482 305Q527 308 557 318T606 342T632 374T640 413Q640 444 608
444ZM381 652L609 772L646 645L403 576L381 652Z" />
<glyph unicode="&#x1fe;" glyph-name="Oslashacute" horiz-adv-x="705" d="M-2 10L74 90Q54 119 44 156T33 238Q33 334 65 419T153 567T286 668T454 705Q551 705 618 661L677 723L739 674L676 608Q699 577 711 539T723 453Q723 357 691 273T603 125T468 24T298
-13Q198 -13 130 34L61 -38L-2 10ZM318 110Q387 110 432 174Q450 200 465 232T493 300T513 374T524 448L240 150Q260 110 318 110ZM323 517Q288 465 264 396T232 256L510 547Q487 583 436 583Q369 583 323 517ZM352 801L587 903L616 774L368 723L352 801Z" />
<glyph unicode="&#x1ff;" glyph-name="oslashacute" horiz-adv-x="585" d="M-13 8L49 70Q13 119 13 195Q13 227 21 266T48 344T93 419T159 484T246 529T355 546Q395 546 428 538T487 514L540 567L593 519L540 466Q579 413 579 338Q579 306 571 267T544 189T499
114T433 49T346 4T236 -13Q194 -13 161 -4T100 22L39 -40L-13 8ZM255 93Q287 93 311 115T353 172T381 246T396 320L200 122Q216 93 255 93ZM337 440Q305 440 280 418T237 362T208 289T192 215L387 412Q371 440 337 440ZM246 652L474 772L511 645L268 576L246 652Z"
/>
<glyph unicode="&#x218;" glyph-name="Scommaaccent" horiz-adv-x="545" d="M209 -10Q131 -10 72 4T-21 36L14 209H137L143 129Q157 121 172 116T216 110Q266 110 291 130T317 189Q317 216 297 235T235 277L203 295Q177 309 156 325T119 363T94 410T85 470Q85
515 101 557T151 631T241 684T375 704Q416 704 447 701T503 693T545 682T579 668L556 507H436L429 570Q418 577 404 582T362 587Q317 587 296 567T274 518Q274 493 292 476T350 436L382 418Q410 402 435 386T478 349T508 302T519 242Q519 188 499 142T438 62T341
9T209 -10ZM284 -36Q271 -78 250 -118T199 -189H70Q84 -155 95 -119T115 -36H284Z" />
<glyph unicode="&#x219;" glyph-name="scommaaccent" horiz-adv-x="449" d="M168 -13Q131 -13 97 -7T37 13T-4 45T-20 90Q-20 120 -5 139T23 167H133L118 101Q126 96 139 93T172 89Q212 89 229 102T247 139Q247 161 231 176T174 211Q125 236 94 269T62 360Q62
399 79 432T128 491T203 531T299 546Q336 546 367 540T422 522T458 492T471 451Q471 428 459 409T433 375H327L339 435Q330 440 318 443T290 447Q256 447 241 433T225 396Q225 385 229 377T243 361T271 343T315 319Q361 295 388 266T416 183Q416 136 397 100T345
38T266 0T168 -13ZM238 -36Q225 -78 204 -118T153 -189H24Q38 -155 49 -119T69 -36H238Z" />
<glyph unicode="&#x21a;" glyph-name="uni021A" horiz-adv-x="653" d="M118 97L196 114L312 579H242L184 458H65L131 693H741L695 458H581L579 579H515L399 114L469 97L444 0H93L118 97ZM344 -36Q331 -78 310 -118T259 -189H130Q144 -155 155 -119T175 -36H344Z" />
<glyph unicode="&#x21b;" glyph-name="uni021B" horiz-adv-x="364" d="M72 511L147 534L183 655H355L321 534H421L389 425H291L211 142Q205 120 210 110T240 99Q260 99 277 102T314 110L285 17Q261 6 225 -3T132 -12Q81 -12 50 8T19 75Q19 98 28 128L115 425H49L72
511ZM196 -36Q183 -78 162 -118T111 -189H-18Q-4 -155 7 -119T27 -36H196Z" />
<glyph unicode="&#x237;" glyph-name="uni0237" horiz-adv-x="311" d="M-95 -109H-91Q-78 -109 -66 -106T-41 -90T-19 -56T3 5L122 425H49L74 516L321 545L335 537L194 48Q175 -19 146 -66T80 -142T1 -185T-86 -199Q-146 -199 -177 -176T-209 -115Q-209 -91 -197
-73T-170 -43H-83L-95 -109Z" />
<glyph unicode="&#x2c6;" glyph-name="circumflex" horiz-adv-x="498" d="M183 627L333 760H419L504 620L460 575L355 641L215 575L183 627Z" />
<glyph unicode="&#x2c7;" glyph-name="caron" horiz-adv-x="498" d="M206 721L250 766L355 701L495 766L526 715L377 582H291L206 721Z" />
<glyph unicode="&#x2d8;" glyph-name="breve" horiz-adv-x="498" d="M353 585Q315 585 287 597T242 629T217 677T212 734H316Q316 716 328 706T363 695Q385 695 401 705T424 734H529Q522 702 508 675T471 628T419 597T353 585Z" />
<glyph unicode="&#x2d9;" glyph-name="dotaccent" horiz-adv-x="498" d="M347 584Q306 584 281 605T255 663Q255 685 264 702T287 732T320 750T359 757Q401 757 426 736T451 678Q451 655 443 638T420 608T386 590T347 584Z" />
<glyph unicode="&#x2da;" glyph-name="ring" horiz-adv-x="498" d="M356 638Q378 638 392 652T406 692Q406 709 395 722T362 736Q340 736 327 722T313 682Q313 663 323 651T356 638ZM353 576Q302 576 272 606T242 680Q242 705 252 726T278 762T317 787T366 796Q417
796 446 766T476 694Q476 669 467 648T440 610T401 585T353 576Z" />
<glyph unicode="&#x2db;" glyph-name="ogonek" horiz-adv-x="538" d="M176 -197Q119 -197 90 -176T62 -119Q62 -96 74 -77T106 -44T148 -18T193 0H281Q270 -9 259 -18T237 -39T221 -63T214 -89Q214 -103 223 -109T247 -115Q255 -115 261 -114T274 -112L257 -182Q242
-189 221 -193T176 -197Z" />
<glyph unicode="&#x2dc;" glyph-name="tilde" horiz-adv-x="498" d="M168 631Q196 676 232 704T310 733Q327 733 342 729T370 718T394 708T418 703Q449 703 478 736L539 690Q511 645 475 617T396 588Q379 588 365 592T337 603T312 613T289 618Q256 618 229 585L168 631Z" />
<glyph unicode="&#x2dd;" glyph-name="hungarumlaut" horiz-adv-x="498" d="M188 613L311 788L413 706L241 570L188 613ZM385 619L521 788L616 697L436 571L385 619Z" />
</font>
</defs>
</svg>
